<svg id="eAPFqnwKBH81" xmlns="http://www.w3.org/2000/svg" xmlns:xlink="http://www.w3.org/1999/xlink" viewBox="0 0 500 500" shape-rendering="geometricPrecision" text-rendering="geometricPrecision"><g><path d="M147.68,287.64h-60.85v-27.47l60.85-72.34h29.12v73.9h15.09v25.91h-15.09v22.48h-29.12Zm0-25.91v-37.84l-32.16,37.84Z" fill="#7e57c2"/><path d="M202.3,249.51q0-34.29,12.34-48t37.61-13.7q12.13,0,19.93,3c4.723873,1.702116,9.049322,4.353198,12.71,7.79c3.085529,2.945955,5.69944,6.349098,7.75,10.09c2.029103,3.90583,3.557817,8.051837,4.55,12.34c2.260891,9.160797,3.38932,18.564377,3.36,28q0,32.72-11.07,47.89t-38.13,15.18q-15.18,0-24.53-4.84c-6.283411-3.2791-11.576084-8.17819-15.33-14.19q-4.35-6.64-6.77-18.17c-1.674914-8.357997-2.485846-16.866086-2.42-25.39Zm33.14.08q0,23,4.05,31.37t11.77,8.41c3.299026.036909,6.475452-1.248787,8.82-3.57q3.74-3.57,5.5-11.28t1.76-24q0-23.94-4.06-32.19t-12.18-8.24q-8.28,0-12,8.41t-3.66,31.09Z" fill="#7e57c2"/><path d="M371.74,287.64h-60.85v-27.47l60.85-72.34h29.12v73.9h15.14v25.91h-15.14v22.48h-29.12Zm0-25.91v-37.84l-32.15,37.84Z" fill="#7e57c2"/></g><g id="eAPFqnwKBH820"><g opacity="0.3"><path d="M201,145.62c-.000011.757252-.456711,1.439746-1.156711,1.728591s-1.505098.127014-2.039119-.409878-.691532-1.342847-.398938-2.041287.977527-1.151475,1.734768-1.147426c.49504-.000007.96966.197329,1.318767.548312s.543895.826655.541233,1.321688Z" fill="#7e57c2"/><circle r="1.32" transform="translate(72.97 216.13)" fill="#7e57c2"/><circle r="1.89" transform="translate(291.05 408.33)" fill="#7e57c2"/><circle r="1.32" transform="translate(336.5 332)" fill="#7e57c2"/><path d="M424.17,95.62c0,.53389-.321608,1.01521-.814858,1.219521s-1.061006.091377-1.438523-.28614-.490451-.945273-.28614-1.438523.685631-.814858,1.219521-.814858c.729016,0,1.32.590984,1.32,1.32Z" fill="#7e57c2"/><path d="M172.75,69c0,.53389-.321608,1.01521-.814858,1.219521s-1.061006.091377-1.438523-.28614-.490451-.945273-.28614-1.438523.685631-.814858,1.219521-.814858c.726749.005444,1.314556.593251,1.32,1.32Z" fill="#7e57c2"/><circle r="1.32" transform="translate(277.7 136.94)" fill="#7e57c2"/></g><circle r="21.91" transform="translate(141.23 116.36)" fill="#7e57c2"/><circle r="21.91" transform="translate(141.23 116.36)" opacity="0.7" fill="#fff"/><path d="M133.68,99.83c-2.983867-.009146-5.937959.593244-8.68,1.77-6.943867,7.631836-7.6252,19.073087-1.636157,27.475085s17.026809,11.489738,26.506157,7.414915v0c5.827546-6.422209,7.321009-15.676282,3.809585-23.605655s-11.3675-13.043119-20.039585-13.044345Z" opacity="0.2" fill="#7e57c2"/><path d="M131.5,105.62c0,1.104569-.895431,2-2,2s-2-.895431-2-2s.895431-2,2-2s2,.895431,2,2Z" opacity="0.2" fill="#7e57c2"/><path d="M155.06,103.62c0,1.104569-.895431,2-2,2s-2-.895431-2-2s.895431-2,2-2s2,.895431,2,2Z" opacity="0.2" fill="#7e57c2"/><path d="M151.06,117.9c0,1.811494-1.468506,3.28-3.28,3.28s-3.28-1.468506-3.28-3.28s1.468506-3.28,3.28-3.28c.86991,0,1.704191.34557,2.31931.96069s.96069,1.4494.96069,2.31931Z" opacity="0.2" fill="#7e57c2"/><path d="M140.64,127.25c0,1.771545-1.067153,3.368652-2.703846,4.046592s-3.52061.303207-4.773282-.949464-1.627405-3.136588-.949464-4.773281s2.275047-2.703847,4.046592-2.703847c2.419007,0,4.38,1.960993,4.38,4.38Z" opacity="0.2" fill="#7e57c2"/><circle r="19.23" transform="matrix(.22971-.973259 0.973259 0.22971 382.183912 376.228761)" fill="#7e57c2"/><circle r="19.23" transform="matrix(.22971-.973259 0.973259 0.22971 382.183912 376.228761)" opacity="0.3" fill="#fff"/><path d="M394.33,361.34c-8.791232-2.653412-18.231412,1.282666-22.5337,9.395413s-2.264709,18.13562,4.8637,23.924587c1.792818.544508,3.656318.820832,5.53.82c8.134962-.001832,15.388677-5.122349,18.114234-12.787135s.333218-16.215388-5.974234-21.352865Z" opacity="0.4" fill="#7e57c2"/><path d="M363.83,382c-20.53,9.66-5.22,17.11,23.71,6.71c26.79-9.63,37-21.77,13-18c1.29,5.05-32.26,18.12-36.71,11.29Z" fill="#7e57c2"/></g><g id="eAPFqnwKBH840"><path d="M394.1,187.83C367.21,206,332.4,230,322.79,287.64h-2.05c9.35-57,42.89-81.57,69.79-99.81Z" opacity="0.2"/><path d="M255,368.27c-17,0-33.81-7.67-42-20.19-5.05-7.74-10.92-23.95,6.56-45.58l1.55,1.26c-12.36,15.3-14.64,30.65-6.43,43.23c10,15.3,33.59,23,53.73,17.52c20.63-5.61,33.15-23.55,34.36-49.22c4.13-87.81,50.78-114.86,84.84-134.61c21.17-12.27,36.46-21.13,33.1-39.84-.47-2.59-1.5-4.38-3.17-5.48-4.35-2.87-12.85-.88-22.69,1.41-19.31,4.5-45.75,10.66-61.5-16.13l1.73-1c15,25.53,39.57,19.8,59.32,15.2c10.29-2.39,19.17-4.46,24.24-1.13c2.15,1.41,3.47,3.64,4,6.8c3.61,20.08-13,29.72-34.05,41.92-33.67,19.52-79.77,46.25-83.85,133-1.26,26.6-14.32,45.21-35.84,51.06-4.533849,1.207355-9.208218,1.805943-13.9,1.78Z" fill="#7e57c2"/><path d="M255,368.27c-17,0-33.81-7.67-42-20.19-5.05-7.74-10.92-23.95,6.56-45.58l1.55,1.26c-12.36,15.3-14.64,30.65-6.43,43.23c10,15.3,33.59,23,53.73,17.52c20.63-5.61,33.15-23.55,34.36-49.22c4.13-87.81,50.78-114.86,84.84-134.61c21.17-12.27,36.46-21.13,33.1-39.84-.47-2.59-1.5-4.38-3.17-5.48-4.35-2.87-12.85-.88-22.69,1.41-19.31,4.5-45.75,10.66-61.5-16.13l1.73-1c15,25.53,39.57,19.8,59.32,15.2c10.29-2.39,19.17-4.46,24.24-1.13c2.15,1.41,3.47,3.64,4,6.8c3.61,20.08-13,29.72-34.05,41.92-33.67,19.52-79.77,46.25-83.85,133-1.26,26.6-14.32,45.21-35.84,51.06-4.533849,1.207355-9.208218,1.805943-13.9,1.78Z" opacity="0.2" fill="#fff"/><path d="M312.76,97c4.607738.026586,9.185392.744584,13.58,2.13s11,18.77,12.3,23.07c-.46,4.24-7.61,11.19-7.61,11.19Z" fill="#7e57c2"/><path d="M312.76,97c4.607738.026586,9.185392.744584,13.58,2.13s11,18.77,12.3,23.07c-.46,4.24-7.61,11.19-7.61,11.19Z" opacity="0.3" fill="#fff"/><path d="M345.34,188.13c-4.236013-5.179627-8.099053-10.653379-11.56-16.38q-1.26-2.17-2.39-4.42c-.43-.85-.84-1.7-1.24-2.56-.524904-.836871-.932062-1.74204-1.21-2.69-1.2-12.67,3.14-22-1-32.17l-16.48,6.44c0,0,1.4,18.12,4.6,29c2,6.73,6.48,12.55,10.81,17.94c1.35,1.68,2.65,3.41,4,5.1s2.71,3.06,4,4.65c1.95,2.41,2.59,4.72,1.12,7.56l-.25.45c-.42.74,1.54,1.58,2.78,0c2-2.58,1.72-2.42,3.46-4.62c1.06-1.33,2.27-2.78,3.32-4c1.044896-1.237495,1.061694-3.043281.04-4.3Z" fill="#7e57c2"/><path d="M345.34,188.13c-4.236013-5.179627-8.099053-10.653379-11.56-16.38q-1.26-2.17-2.39-4.42c-.43-.85-.84-1.7-1.24-2.56-.524904-.836871-.932062-1.74204-1.21-2.69-1.2-12.67,3.14-22-1-32.17l-16.48,6.44c0,0,1.4,18.12,4.6,29c2,6.73,6.48,12.55,10.81,17.94c1.35,1.68,2.65,3.41,4,5.1s2.71,3.06,4,4.65c1.95,2.41,2.59,4.72,1.12,7.56l-.25.45c-.42.74,1.54,1.58,2.78,0c2-2.58,1.72-2.42,3.46-4.62c1.06-1.33,2.27-2.78,3.32-4c1.044896-1.237495,1.061694-3.043281.04-4.3Z" opacity="0.7" fill="#fff"/><path d="M341.31,182.92c-2.615118,2.803264-5.517742,5.323788-8.66,7.52.43.48.85,1,1.28,1.46c3.146027-2.125417,6.00318-4.649795,8.5-7.51Z" opacity="0.3" fill="#7e57c2"/><path d="M345.34,188.13l-.12-.14c-.769483.882736-1.217156,2.000156-1.27,3.17-.064374.802503.065987,1.608683.38,2.35l.95-1.13c1.023497-1.223863,1.04854-2.997732.06-4.25Z" opacity="0.3" fill="#7e57c2"/><path d="M308.84,109c-1.786592,2.675111-3.929673,5.094068-6.37,7.19-1.353286,1.166357-2.836389,2.172988-4.42,3-.832013.426311-1.694355.790634-2.58,1.09l-.68.22-.22.06-.47.13c-.289407.068671-.583571.115469-.88.14-.843644.064519-1.692132-.013231-2.51-.23-1.031392-.292745-2.019851-.719733-2.94-1.27-.740377-.432812-1.457992-.903434-2.15-1.41-1.250315-.929964-2.445654-1.931645-3.58-3-2.187412-2.072553-4.194641-4.327341-6-6.74-.717182-.96962-.643375-2.312245.175769-3.19741s2.152036-1.062614,3.174231-.42259h.08c2.36,1.5,4.74,3.08,7.06,4.49c1.18.69,2.32,1.39,3.45,1.93.515858.27008,1.046723.510471,1.59.72.338431.149418.70074.237455,1.07.26.06,0,0-.07-.37-.06-.116562-.006974-.233438-.006974-.35,0l-.22.05v0l.33-.17c.444396-.239071.875069-.502816,1.29-.79.894744-.630885,1.731396-1.340366,2.5-2.12c1.747035-1.830828,3.383275-3.764264,4.9-5.79v0c1.72227-1.926869,4.629173-2.223715,6.705367-.684736s2.637442,4.406592,1.294633,6.614736Z" fill="#7e57c2"/><path d="M308.84,109c-1.786592,2.675111-3.929673,5.094068-6.37,7.19-1.353286,1.166357-2.836389,2.172988-4.42,3-.832013.426311-1.694355.790634-2.58,1.09l-.68.22-.22.06-.47.13c-.289407.068671-.583571.115469-.88.14-.843644.064519-1.692132-.013231-2.51-.23-1.031392-.292745-2.019851-.719733-2.94-1.27-.740377-.432812-1.457992-.903434-2.15-1.41-1.250315-.929964-2.445654-1.931645-3.58-3-2.187412-2.072553-4.194641-4.327341-6-6.74-.717182-.96962-.643375-2.312245.175769-3.19741s2.152036-1.062614,3.174231-.42259h.08c2.36,1.5,4.74,3.08,7.06,4.49c1.18.69,2.32,1.39,3.45,1.93.515858.27008,1.046723.510471,1.59.72.338431.149418.70074.237455,1.07.26.06,0,0-.07-.37-.06-.116562-.006974-.233438-.006974-.35,0l-.22.05v0l.33-.17c.444396-.239071.875069-.502816,1.29-.79.894744-.630885,1.731396-1.340366,2.5-2.12c1.747035-1.830828,3.383275-3.764264,4.9-5.79v0c1.72227-1.926869,4.629173-2.223715,6.705367-.684736s2.637442,4.406592,1.294633,6.614736Z" opacity="0.7" fill="#fff"/><path d="M272.29,102.42l1.17,2c0,0,.89,2.62,2.68,3.1l4.86-1.57-.25-.41v0c-.62-.94-.55-2.77-.34-4.29s-.57-1.57-1.15-1.19c-.41107.472795-.699543,1.039439-.84,1.65-.238546-.33023-.502694-.641189-.79-.93l-1.48-1.48c-.644009-.629519-1.664575-.655687-2.34-.06l-1.2,1.07c-.586322.542303-.719165,1.41824-.32,2.11Z" fill="#7e57c2"/><path d="M272.29,102.42l1.17,2c0,0,.89,2.62,2.68,3.1l4.86-1.57-.25-.41v0c-.62-.94-.55-2.77-.34-4.29s-.57-1.57-1.15-1.19c-.41107.472795-.699543,1.039439-.84,1.65-.238546-.33023-.502694-.641189-.79-.93l-1.48-1.48c-.644009-.629519-1.664575-.655687-2.34-.06l-1.2,1.07c-.586322.542303-.719165,1.41824-.32,2.11Z" opacity="0.7" fill="#fff"/><path d="M317.67,95.22c-5.390683,1.428851-10.554315,3.606732-15.34,6.47-1.528956.956926-2.302447,2.763069-1.94,4.53c1.93,9.44,6.32,22.08,11.06,30.13l22.11-9.15c.15-3.9-5.22-16.52-10.69-28.72-.98-2.19-2.87-3.82-5.2-3.26Z" fill="#7e57c2"/><path d="M317.67,95.22c-5.390683,1.428851-10.554315,3.606732-15.34,6.47-1.528956.956926-2.302447,2.763069-1.94,4.53c1.93,9.44,6.32,22.08,11.06,30.13l22.11-9.15c.15-3.9-5.22-16.52-10.69-28.72-.98-2.19-2.87-3.82-5.2-3.26Z" opacity="0.8" fill="#fff"/><path d="M326.3,106.21l-4.39-1.47c1,2.57,4.53,5.82,7,7.73-.8-2-1.69-4.1-2.61-6.26Z" opacity="0.3" fill="#7e57c2"/><path d="M316.22,85.32c-1.83-3.48-5.78-5.23-10.52-4.84-4,.34-7.54,4.42-7.12,6.62s3.78,3.14,4.42,3.9l-2.77,2c-.663061.478598-1.102017,1.207126-1.215284,2.016988s.10897,1.630865.615284,2.273012c1.17,1.48,2.71,3,3.6,4.12c7.66-.2,13.33-3.12,15.38-5.93-.77-3.56-.61-6.7-2.39-10.16Z" fill="#7e57c2"/><path d="M316.22,85.32c-1.83-3.48-5.78-5.23-10.52-4.84-4,.34-7.54,4.42-7.12,6.62s3.78,3.14,4.42,3.9l-2.77,2c-.663061.478598-1.102017,1.207126-1.215284,2.016988s.10897,1.630865.615284,2.273012c1.17,1.48,2.71,3,3.6,4.12c7.66-.2,13.33-3.12,15.38-5.93-.77-3.56-.61-6.7-2.39-10.16Z" opacity="0.8" fill="#fff"/><path d="M312.46,87.48c1.518434,3.894233-.40669,8.282163-4.300409,9.801914s-8.2823-.403888-9.803368-4.297093.401087-8.282436,4.293777-9.804821c3.896293-1.517868,8.285803.406178,9.81,4.3Z" fill="#263238"/><path d="M377.39,177.6c-.11-3.29-.26-3-.35-5.77-.06-1.7-.07-3.59-.08-5.22-.006909-1.595776-1.135295-2.966556-2.7-3.28-1.32-.27-2.65-.52-4-.8-1.73-.37-3.44-.77-5.13-1.26-1.32-.38-2.62-.8-3.91-1.27s-2.74-1-4.08-1.62c-1.58-.67-3.14-1.39-4.68-2.14-1.73-.82-3.44-1.68-5.15-2.55-6.58-10.89-6.72-18.07-13.78-26.49l-15.16,6.86c0,0,11.14,19.76,18.72,28.14c4.37,4.82,11.22,7,17.33,8.58c4.41,1.13,8.88,2,13.35,2.83c1.74.32,3.63.44,5.13,1.48c1.109784.850916,1.870751,2.077709,2.14,3.45q.1.42.18.84c.19.84,2.24.2,2.17-1.78Z" fill="#7e57c2"/><path d="M377.39,177.6c-.11-3.29-.26-3-.35-5.77-.06-1.7-.07-3.59-.08-5.22-.006909-1.595776-1.135295-2.966556-2.7-3.28-1.32-.27-2.65-.52-4-.8-1.73-.37-3.44-.77-5.13-1.26-1.32-.38-2.62-.8-3.91-1.27s-2.74-1-4.08-1.62c-1.58-.67-3.14-1.39-4.68-2.14-1.73-.82-3.44-1.68-5.15-2.55-6.58-10.89-6.72-18.07-13.78-26.49l-15.16,6.86c0,0,11.14,19.76,18.72,28.14c4.37,4.82,11.22,7,17.33,8.58c4.41,1.13,8.88,2,13.35,2.83c1.74.32,3.63.44,5.13,1.48c1.109784.850916,1.870751,2.077709,2.14,3.45q.1.42.18.84c.19.84,2.24.2,2.17-1.78Z" opacity="0.8" fill="#fff"/><path d="M369.7,162.4c-.6-.13-1.2-.26-1.81-.41.05,3.46-1.57,9.42-2.16,11.23l1.9.36c1.245166-3.602192,1.94293-7.370791,2.07-11.18Z" opacity="0.3" fill="#7e57c2"/><path d="M377,166.61c-.005938-1.592705-1.129268-2.962416-2.69-3.28l-1-.19c.160649,1.136799.742392,2.171802,1.63,2.9.570858.527751,1.255021.917724,2,1.14.06-.18.06-.38.06-.57Z" opacity="0.3" fill="#7e57c2"/><path d="M311.05,87.54c.4,1.52-1.3,3.11-2.65,1.8-1.260007-1.350952-2.638887-2.58592-4.12-3.69-1.39-.87.46-2.39,2.65-1.8c1.897132.476599,3.43801,1.856657,4.12,3.69Z" fill="#fff"/><path d="M311.16,135.86c-.7.26.58,1.46.58,1.46s14-4.79,22.5-9.72c.041691-.60556-.211558-1.193991-.68-1.58-7.27476,3.700575-14.753421,6.985843-22.4,9.84Z" fill="#7e57c2"/><path d="M311.16,135.86c-.7.26.58,1.46.58,1.46s14-4.79,22.5-9.72c.041691-.60556-.211558-1.193991-.68-1.58-7.27476,3.700575-14.753421,6.985843-22.4,9.84Z" opacity="0.5" fill="#fff"/><path d="M321.46,94.56c2.76,1.4,5.35,2.87,8,4.5c1.29.82,2.57,1.65,3.84,2.55s2.53,1.82,3.8,2.86l.47.39.59.54c.351591.314561.685439.648409,1,1c.32.35.59.69.85,1s.54.68.77,1c.931866,1.285584,1.793138,2.620888,2.58,4c1.549819,2.674354,2.887262,5.466267,4,8.35.424145,1.123438-.003346,2.390091-1.021518,3.026752s-2.344137.466441-3.168482-.406752l-.05-.06c-2-2.13-3.93-4.37-5.87-6.46s-3.91-4.21-5.54-5.14c-2.27-1.41-4.8-2.82-7.31-4.2l-7.56-4.2v0c-2.441099-1.292346-3.372346-4.318901-2.08-6.76s4.318901-3.372346,6.76-2.08Z" fill="#7e57c2"/><path d="M321.46,94.56c2.76,1.4,5.35,2.87,8,4.5c1.29.82,2.57,1.65,3.84,2.55s2.53,1.82,3.8,2.86l.47.39.59.54c.351591.314561.685439.648409,1,1c.32.35.59.69.85,1s.54.68.77,1c.931866,1.285584,1.793138,2.620888,2.58,4c1.549819,2.674354,2.887262,5.466267,4,8.35.424145,1.123438-.003346,2.390091-1.021518,3.026752s-2.344137.466441-3.168482-.406752l-.05-.06c-2-2.13-3.93-4.37-5.87-6.46s-3.91-4.21-5.54-5.14c-2.27-1.41-4.8-2.82-7.31-4.2l-7.56-4.2v0c-2.441099-1.292346-3.372346-4.318901-2.08-6.76s4.318901-3.372346,6.76-2.08Z" opacity="0.8" fill="#fff"/><path d="M349.73,125.74l-.85-2.13c0,0-.47-2.72-2.16-3.48l-5,.79.17.44v0c.46,1,.11,2.83-.34,4.29s.31,1.65.95,1.36c.36-.16.71-.81,1.09-1.5.186431.347613.396944.681761.63,1l1.23,1.69c.533057.726486,1.536436.918436,2.3.44l1.36-.87c.655604-.448677.913045-1.291588.62-2.03Z" fill="#7e57c2"/><path d="M349.73,125.74l-.85-2.13c0,0-.47-2.72-2.16-3.48l-5,.79.17.44v0c.46,1,.11,2.83-.34,4.29s.31,1.65.95,1.36c.36-.16.71-.81,1.09-1.5.186431.347613.396944.681761.63,1l1.23,1.69c.533057.726486,1.536436.918436,2.3.44l1.36-.87c.655604-.448677.913045-1.291588.62-2.03Z" opacity="0.8" fill="#fff"/><path d="M317.24,106.06l-1.22.1-7.49,18.08c.409389.029457.820872-.004271,1.22-.1s9.76-3.64,12.71-5c-1.98-4.09-5.22-13.08-5.22-13.08Z" opacity="0.3" fill="#7e57c2"/><path d="M303.57,110.8c.91007,4.726206,2.599786,9.268163,5,13.44c3.66-1.26,9.76-3.64,12.72-5-1.989521-4.265072-3.755252-8.631002-5.29-13.08-3.13.21-10,2.84-12.43,4.64Z" fill="#fff"/><path d="M311,114.71c-.298966,1.00006-1.171056,1.721452-2.209432,1.827641s-2.038432-.423748-2.533635-1.342592-.387975-2.045543.271661-2.854482s1.741702-1.14072,2.741406-.840567c1.363566.4094,2.137781,1.84595,1.73,3.21Z" opacity="0.3" fill="#7e57c2"/><path d="M312.91,111.27c-.079774.341659-.361269.599199-.708658.64835s-.689283-.120187-.860709-.426305-.137156-.686107.086274-.956614.590103-.375943.923093-.265431c.420399.134442.665045.571309.56,1Z" opacity="0.6" fill="#7e57c2"/><path d="M315.15,110.4c-.06402.316391-.301732.569213-.613583.652585s-.644013-.017097-.857378-.259331-.271106-.584421-.149039-.883254c.064642-.213726.211717-.39292.408735-.497996s.427765-.127387.641265-.062004c.445415.134931.699496.602975.57,1.05Z" opacity="0.6" fill="#7e57c2"/><polygon points="318.29,118.19 309.04,121.84 308.49,120.02 317.73,116.37 318.29,118.19" opacity="0.5" fill="#7e57c2"/></g><g id="eAPFqnwKBH877" transform="translate(-9.939423 5.822506)"><path d="M267.26,257.17c-.02141,5.822885-.583827,11.631185-1.68,17.35q-1.77,7.71-5.5,11.28c-2.339589,2.322544-5.513579,3.608713-8.81,3.57q-7.71,0-11.77-8.41c-.475634-1.007065-.879962-2.046288-1.21-3.11-5.71625,4.909521-11.039193,10.259213-15.92,16l-5.31,6.26c2.857589,2.896354,6.154921,5.322947,9.77,7.19q9.34,4.83,24.52,4.84c1.78,0,3.5-.05,5.17-.15c6.122569-9.059322,11.188829-18.789225,15.1-29l14.85-38.72Z" opacity="0.2"/><path d="M133.39,310l17.5,17.5l49-46.17c-16.89-6.45-49.73,11.86-66.5,28.67Z" fill="#263238"/><path d="M194.42,371c-5.59-5.6-17.5-17.5-17.5-17.5l46.17-49c6.41,16.85-11.9,49.72-28.67,66.5Z" fill="#263238"/><path d="M261.4,260.7l19.09-36.81L243.68,243c-11.823504,6.131936-22.740592,13.872165-32.44,23l-62.75,59.07l30.83,30.83l59.07-62.75c9.132119-9.701851,16.875764-20.622377,23.01-32.45Z" fill="#7e57c2"/><path d="M261.4,260.7l19.09-36.81L243.68,243c-11.823504,6.131936-22.740592,13.872165-32.44,23l-62.75,59.07l30.83,30.83l59.07-62.75c9.132119-9.701851,16.875764-20.622377,23.01-32.45Z" opacity="0.6" fill="#fff"/><circle r="12.9" transform="translate(222.2 282.18)" fill="#fff"/><circle r="8.29" transform="translate(222.2 282.18)" fill="#7e57c2"/><polygon points="189.75,344.82 159.56,314.63 184.28,291.37 213.01,320.11 189.75,344.82" opacity="0.3" fill="#7e57c2"/><path d="M140.22,337.62c-22.6,1.83-30.09,16.3-32.65,35.53-1.3,9.81-1.88,19.74-10.11,25.48-1.016929.691154-1.456536,1.96995-1.079528,3.140293s1.480386,1.952089,2.709528,1.919707c30.34-.95,44.49-15.8,46.27-22-.467218,3.241076-1.302618,6.41828-2.49,9.47-.447679,1.104553-.135781,2.371703.77344,3.142268s2.210363.870466,3.22656.247732c8.51-5.33,19.19-15.15,19.9-31.08-6.26-8.87-26.55-25.85-26.55-25.85Z" fill="#7e57c2"/><path d="M140.22,337.62c-22.6,1.83-30.09,16.3-32.65,35.53-1.3,9.81-1.88,19.74-10.11,25.48-1.016929.691154-1.456536,1.96995-1.079528,3.140293s1.480386,1.952089,2.709528,1.919707c30.34-.95,44.49-15.8,46.27-22-.467218,3.241076-1.302618,6.41828-2.49,9.47-.447679,1.104553-.135781,2.371703.77344,3.142268s2.210363.870466,3.22656.247732c8.51-5.33,19.19-15.15,19.9-31.08-6.26-8.87-26.55-25.85-26.55-25.85Z" opacity="0.2" fill="#fff"/><polygon points="170.28,370.3 134.08,334.1 153.36,329.93 174.45,351.02 170.28,370.3" fill="#7e57c2"/></g>
<script><![CDATA[
!function(t,n){"object"==typeof exports&&"undefined"!=typeof module?module.exports=n():"function"==typeof define&&define.amd?define(n):((t="undefined"!=typeof globalThis?globalThis:t||self).__SVGATOR_PLAYER__=t.__SVGATOR_PLAYER__||{},t.__SVGATOR_PLAYER__["5c7f360c"]=n())}(this,(function(){"use strict";function t(t,n){var e=Object.keys(t);if(Object.getOwnPropertySymbols){var r=Object.getOwnPropertySymbols(t);n&&(r=r.filter((function(n){return Object.getOwnPropertyDescriptor(t,n).enumerable}))),e.push.apply(e,r)}return e}function n(n){for(var e=1;e<arguments.length;e++){var r=null!=arguments[e]?arguments[e]:{};e%2?t(Object(r),!0).forEach((function(t){o(n,t,r[t])})):Object.getOwnPropertyDescriptors?Object.defineProperties(n,Object.getOwnPropertyDescriptors(r)):t(Object(r)).forEach((function(t){Object.defineProperty(n,t,Object.getOwnPropertyDescriptor(r,t))}))}return n}function e(t){return(e="function"==typeof Symbol&&"symbol"==typeof Symbol.iterator?function(t){return typeof t}:function(t){return t&&"function"==typeof Symbol&&t.constructor===Symbol&&t!==Symbol.prototype?"symbol":typeof t})(t)}function r(t,n){if(!(t instanceof n))throw new TypeError("Cannot call a class as a function")}function i(t,n){for(var e=0;e<n.length;e++){var r=n[e];r.enumerable=r.enumerable||!1,r.configurable=!0,"value"in r&&(r.writable=!0),Object.defineProperty(t,r.key,r)}}function u(t,n,e){return n&&i(t.prototype,n),e&&i(t,e),t}function o(t,n,e){return n in t?Object.defineProperty(t,n,{value:e,enumerable:!0,configurable:!0,writable:!0}):t[n]=e,t}function a(t){return(a=Object.setPrototypeOf?Object.getPrototypeOf:function(t){return t.__proto__||Object.getPrototypeOf(t)})(t)}function l(t,n){return(l=Object.setPrototypeOf||function(t,n){return t.__proto__=n,t})(t,n)}function s(){if("undefined"==typeof Reflect||!Reflect.construct)return!1;if(Reflect.construct.sham)return!1;if("function"==typeof Proxy)return!0;try{return Boolean.prototype.valueOf.call(Reflect.construct(Boolean,[],(function(){}))),!0}catch(t){return!1}}function f(t,n,e){return(f=s()?Reflect.construct:function(t,n,e){var r=[null];r.push.apply(r,n);var i=new(Function.bind.apply(t,r));return e&&l(i,e.prototype),i}).apply(null,arguments)}function c(t,n){if(n&&("object"==typeof n||"function"==typeof n))return n;if(void 0!==n)throw new TypeError("Derived constructors may only return object or undefined");return function(t){if(void 0===t)throw new ReferenceError("this hasn't been initialised - super() hasn't been called");return t}(t)}function h(t,n,e){return(h="undefined"!=typeof Reflect&&Reflect.get?Reflect.get:function(t,n,e){var r=function(t,n){for(;!Object.prototype.hasOwnProperty.call(t,n)&&null!==(t=a(t)););return t}(t,n);if(r){var i=Object.getOwnPropertyDescriptor(r,n);return i.get?i.get.call(e):i.value}})(t,n,e||t)}function v(t){return function(t){if(Array.isArray(t))return y(t)}(t)||function(t){if("undefined"!=typeof Symbol&&null!=t[Symbol.iterator]||null!=t["@@iterator"])return Array.from(t)}(t)||function(t,n){if(!t)return;if("string"==typeof t)return y(t,n);var e=Object.prototype.toString.call(t).slice(8,-1);"Object"===e&&t.constructor&&(e=t.constructor.name);if("Map"===e||"Set"===e)return Array.from(t);if("Arguments"===e||/^(?:Ui|I)nt(?:8|16|32)(?:Clamped)?Array$/.test(e))return y(t,n)}(t)||function(){throw new TypeError("Invalid attempt to spread non-iterable instance.\nIn order to be iterable, non-array objects must have a [Symbol.iterator]() method.")}()}function y(t,n){(null==n||n>t.length)&&(n=t.length);for(var e=0,r=new Array(n);e<n;e++)r[e]=t[e];return r}Number.isInteger||(Number.isInteger=function(t){return"number"==typeof t&&isFinite(t)&&Math.floor(t)===t}),Number.EPSILON||(Number.EPSILON=2220446049250313e-31);var g=d(Math.pow(10,-6));function d(t){var n=arguments.length>1&&void 0!==arguments[1]?arguments[1]:6;if(Number.isInteger(t))return t;var e=Math.pow(10,n);return Math.round((+t+Number.EPSILON)*e)/e}function p(t,n){var e=arguments.length>2&&void 0!==arguments[2]?arguments[2]:g;return Math.abs(t-n)<e}var m=Math.PI/180;function b(t){return t}function w(t,n,e){var r=1-e;return 3*e*r*(t*r+n*e)+e*e*e}function x(){var t=arguments.length>0&&void 0!==arguments[0]?arguments[0]:0,n=arguments.length>1&&void 0!==arguments[1]?arguments[1]:0,e=arguments.length>2&&void 0!==arguments[2]?arguments[2]:1,r=arguments.length>3&&void 0!==arguments[3]?arguments[3]:1;return t<0||t>1||e<0||e>1?null:p(t,n)&&p(e,r)?b:function(i){if(i<=0)return t>0?i*n/t:0===n&&e>0?i*r/e:0;if(i>=1)return e<1?1+(i-1)*(r-1)/(e-1):1===e&&t<1?1+(i-1)*(n-1)/(t-1):1;for(var u,o=0,a=1;o<a;){var l=w(t,e,u=(o+a)/2);if(p(i,l))break;l<i?o=u:a=u}return w(n,r,u)}}function A(){return 1}function k(t){return 1===t?1:0}function _(){var t=arguments.length>0&&void 0!==arguments[0]?arguments[0]:1,n=arguments.length>1&&void 0!==arguments[1]?arguments[1]:0;if(1===t){if(0===n)return k;if(1===n)return A}var e=1/t;return function(t){return t>=1?1:(t+=n*e)-t%e}}var S=Math.sin,O=Math.cos,j=Math.acos,M=Math.asin,P=Math.tan,E=Math.atan2,I=Math.PI/180,R=180/Math.PI,F=Math.sqrt,N=function(){function t(){var n=arguments.length>0&&void 0!==arguments[0]?arguments[0]:1,e=arguments.length>1&&void 0!==arguments[1]?arguments[1]:0,i=arguments.length>2&&void 0!==arguments[2]?arguments[2]:0,u=arguments.length>3&&void 0!==arguments[3]?arguments[3]:1,o=arguments.length>4&&void 0!==arguments[4]?arguments[4]:0,a=arguments.length>5&&void 0!==arguments[5]?arguments[5]:0;r(this,t),this.m=[n,e,i,u,o,a],this.i=null,this.w=null,this.s=null}return u(t,[{key:"determinant",get:function(){var t=this.m;return t[0]*t[3]-t[1]*t[2]}},{key:"isIdentity",get:function(){if(null===this.i){var t=this.m;this.i=1===t[0]&&0===t[1]&&0===t[2]&&1===t[3]&&0===t[4]&&0===t[5]}return this.i}},{key:"point",value:function(t,n){var e=this.m;return{x:e[0]*t+e[2]*n+e[4],y:e[1]*t+e[3]*n+e[5]}}},{key:"translateSelf",value:function(){var t=arguments.length>0&&void 0!==arguments[0]?arguments[0]:0,n=arguments.length>1&&void 0!==arguments[1]?arguments[1]:0;if(!t&&!n)return this;var e=this.m;return e[4]+=e[0]*t+e[2]*n,e[5]+=e[1]*t+e[3]*n,this.w=this.s=this.i=null,this}},{key:"rotateSelf",value:function(){var t=arguments.length>0&&void 0!==arguments[0]?arguments[0]:0;if(t%=360){var n=S(t*=I),e=O(t),r=this.m,i=r[0],u=r[1];r[0]=i*e+r[2]*n,r[1]=u*e+r[3]*n,r[2]=r[2]*e-i*n,r[3]=r[3]*e-u*n,this.w=this.s=this.i=null}return this}},{key:"scaleSelf",value:function(){var t=arguments.length>0&&void 0!==arguments[0]?arguments[0]:1,n=arguments.length>1&&void 0!==arguments[1]?arguments[1]:1;if(1!==t||1!==n){var e=this.m;e[0]*=t,e[1]*=t,e[2]*=n,e[3]*=n,this.w=this.s=this.i=null}return this}},{key:"skewSelf",value:function(t,n){if(n%=360,(t%=360)||n){var e=this.m,r=e[0],i=e[1],u=e[2],o=e[3];t&&(t=P(t*I),e[2]+=r*t,e[3]+=i*t),n&&(n=P(n*I),e[0]+=u*n,e[1]+=o*n),this.w=this.s=this.i=null}return this}},{key:"resetSelf",value:function(){var t=arguments.length>0&&void 0!==arguments[0]?arguments[0]:1,n=arguments.length>1&&void 0!==arguments[1]?arguments[1]:0,e=arguments.length>2&&void 0!==arguments[2]?arguments[2]:0,r=arguments.length>3&&void 0!==arguments[3]?arguments[3]:1,i=arguments.length>4&&void 0!==arguments[4]?arguments[4]:0,u=arguments.length>5&&void 0!==arguments[5]?arguments[5]:0,o=this.m;return o[0]=t,o[1]=n,o[2]=e,o[3]=r,o[4]=i,o[5]=u,this.w=this.s=this.i=null,this}},{key:"recomposeSelf",value:function(){var t=arguments.length>0&&void 0!==arguments[0]?arguments[0]:null,n=arguments.length>1&&void 0!==arguments[1]?arguments[1]:null,e=arguments.length>2&&void 0!==arguments[2]?arguments[2]:null,r=arguments.length>3&&void 0!==arguments[3]?arguments[3]:null,i=arguments.length>4&&void 0!==arguments[4]?arguments[4]:null;return this.isIdentity||this.resetSelf(),t&&(t.x||t.y)&&this.translateSelf(t.x,t.y),n&&this.rotateSelf(n),e&&(e.x&&this.skewSelf(e.x,0),e.y&&this.skewSelf(0,e.y)),!r||1===r.x&&1===r.y||this.scaleSelf(r.x,r.y),i&&(i.x||i.y)&&this.translateSelf(i.x,i.y),this}},{key:"decompose",value:function(){var t=arguments.length>0&&void 0!==arguments[0]?arguments[0]:0,n=arguments.length>1&&void 0!==arguments[1]?arguments[1]:0,e=this.m,r=e[0]*e[0]+e[1]*e[1],i=[[e[0],e[1]],[e[2],e[3]]],u=F(r);if(0===u)return{origin:{x:d(e[4]),y:d(e[5])},translate:{x:d(t),y:d(n)},scale:{x:0,y:0},skew:{x:0,y:0},rotate:0};i[0][0]/=u,i[0][1]/=u;var o=e[0]*e[3]-e[1]*e[2]<0;o&&(u=-u);var a=i[0][0]*i[1][0]+i[0][1]*i[1][1];i[1][0]-=i[0][0]*a,i[1][1]-=i[0][1]*a;var l=F(i[1][0]*i[1][0]+i[1][1]*i[1][1]);if(0===l)return{origin:{x:d(e[4]),y:d(e[5])},translate:{x:d(t),y:d(n)},scale:{x:d(u),y:0},skew:{x:0,y:0},rotate:0};i[1][0]/=l,i[1][1]/=l,a/=l;var s=0;return i[1][1]<0?(s=j(i[1][1])*R,i[0][1]<0&&(s=360-s)):s=M(i[0][1])*R,o&&(s=-s),a=E(a,F(i[0][0]*i[0][0]+i[0][1]*i[0][1]))*R,o&&(a=-a),{origin:{x:d(e[4]),y:d(e[5])},translate:{x:d(t),y:d(n)},scale:{x:d(u),y:d(l)},skew:{x:d(a),y:0},rotate:d(s)}}},{key:"clone",value:function(){var t=this.m;return new this.constructor(t[0],t[1],t[2],t[3],t[4],t[5])}},{key:"toString",value:function(){var t=arguments.length>0&&void 0!==arguments[0]?arguments[0]:" ";if(null===this.s){var n=this.m.map((function(t){return d(t)}));1===n[0]&&0===n[1]&&0===n[2]&&1===n[3]?this.s="translate("+n[4]+t+n[5]+")":this.s="matrix("+n.join(t)+")"}return this.s}}],[{key:"create",value:function(t){return t?Array.isArray(t)?f(this,v(t)):t instanceof this?t.clone():(new this).recomposeSelf(t.origin,t.rotate,t.skew,t.scale,t.translate):new this}}]),t}();function T(t,n,e){return t>=.5?e:n}function q(t,n,e){return 0===t||n===e?n:t*(e-n)+n}function B(t,n,e){var r=q(t,n,e);return r<=0?0:r}function L(t,n,e){var r=q(t,n,e);return r<=0?0:r>=1?1:r}function C(t,n,e){return 0===t?n:1===t?e:{x:q(t,n.x,e.x),y:q(t,n.y,e.y)}}function D(t,n,e){var r=function(t,n,e){return Math.round(q(t,n,e))}(t,n,e);return r<=0?0:r>=255?255:r}function z(t,n,e){return 0===t?n:1===t?e:{r:D(t,n.r,e.r),g:D(t,n.g,e.g),b:D(t,n.b,e.b),a:q(t,null==n.a?1:n.a,null==e.a?1:e.a)}}function V(t,n){for(var e=[],r=0;r<t;r++)e.push(n);return e}function G(t,n){if(--n<=0)return t;var e=(t=Object.assign([],t)).length;do{for(var r=0;r<e;r++)t.push(t[r])}while(--n>0);return t}var Y,$=function(){function t(n){r(this,t),this.list=n,this.length=n.length}return u(t,[{key:"setAttribute",value:function(t,n){for(var e=this.list,r=0;r<this.length;r++)e[r].setAttribute(t,n)}},{key:"removeAttribute",value:function(t){for(var n=this.list,e=0;e<this.length;e++)n[e].removeAttribute(t)}},{key:"style",value:function(t,n){for(var e=this.list,r=0;r<this.length;r++)e[r].style[t]=n}}]),t}(),U=/-./g,Q=function(t,n){return n.toUpperCase()};function H(t){return"function"==typeof t?t:T}function J(t){return t?"function"==typeof t?t:Array.isArray(t)?function(t){var n=arguments.length>1&&void 0!==arguments[1]?arguments[1]:b;if(!Array.isArray(t))return n;switch(t.length){case 1:return _(t[0])||n;case 2:return _(t[0],t[1])||n;case 4:return x(t[0],t[1],t[2],t[3])||n}return n}(t,null):function(t,n){var e=arguments.length>2&&void 0!==arguments[2]?arguments[2]:b;switch(t){case"linear":return b;case"steps":return _(n.steps||1,n.jump||0)||e;case"bezier":case"cubic-bezier":return x(n.x1||0,n.y1||0,n.x2||0,n.y2||0)||e}return e}(t.type,t.value,null):null}function Z(t,n,e){var r=arguments.length>3&&void 0!==arguments[3]&&arguments[3],i=n.length-1;if(t<=n[0].t)return r?[0,0,n[0].v]:n[0].v;if(t>=n[i].t)return r?[i,1,n[i].v]:n[i].v;var u,o=n[0],a=null;for(u=1;u<=i;u++){if(!(t>n[u].t)){a=n[u];break}o=n[u]}return null==a?r?[i,1,n[i].v]:n[i].v:o.t===a.t?r?[u,1,a.v]:a.v:(t=(t-o.t)/(a.t-o.t),o.e&&(t=o.e(t)),r?[u,t,e(t,o.v,a.v)]:e(t,o.v,a.v))}function K(t,n){var e=arguments.length>2&&void 0!==arguments[2]?arguments[2]:null;return t&&t.length?"function"!=typeof n?null:("function"!=typeof e&&(e=null),function(r){var i=Z(r,t,n);return null!=i&&e&&(i=e(i)),i}):null}function W(t,n){return t.t-n.t}function X(t,n,r,i,u){var o,a="@"===r[0],l="#"===r[0],s=Y[r],f=T;switch(a?(o=r.substr(1),r=o.replace(U,Q)):l&&(r=r.substr(1)),e(s)){case"function":if(f=s(i,u,Z,J,r,a,n,t),l)return f;break;case"string":f=K(i,H(s));break;case"object":if((f=K(i,H(s.i),s.f))&&"function"==typeof s.u)return s.u(n,f,r,a,t)}return f?function(t,n,e){if(arguments.length>3&&void 0!==arguments[3]&&arguments[3])return t instanceof $?function(r){return t.style(n,e(r))}:function(r){return t.style[n]=e(r)};if(Array.isArray(n)){var r=n.length;return function(i){var u=e(i);if(null==u)for(var o=0;o<r;o++)t[o].removeAttribute(n);else for(var a=0;a<r;a++)t[a].setAttribute(n,u)}}return function(r){var i=e(r);null==i?t.removeAttribute(n):t.setAttribute(n,i)}}(n,r,f,a):null}function tt(t,n,r,i){if(!i||"object"!==e(i))return null;var u=null,o=null;return Array.isArray(i)?o=function(t){if(!t||!t.length)return null;for(var n=0;n<t.length;n++)t[n].e&&(t[n].e=J(t[n].e));return t.sort(W)}(i):(o=i.keys,u=i.data||null),o?X(t,n,r,o,u):null}function nt(t,n,e){if(!e)return null;var r=[];for(var i in e)if(e.hasOwnProperty(i)){var u=tt(t,n,i,e[i]);u&&r.push(u)}return r.length?r:null}function et(t,n){if(!n.settings.duration||n.settings.duration<0)return null;var e,r,i,u,o,a=function(t,n){if(!n)return null;var e=[];if(Array.isArray(n))for(var r=n.length,i=0;i<r;i++){var u=n[i];if(2===u.length){var o=null;if("string"==typeof u[0])o=t.getElementById(u[0]);else if(Array.isArray(u[0])){o=[];for(var a=0;a<u[0].length;a++)if("string"==typeof u[0][a]){var l=t.getElementById(u[0][a]);l&&o.push(l)}o=o.length?1===o.length?o[0]:new $(o):null}if(o){var s=nt(t,o,u[1]);s&&(e=e.concat(s))}}}else for(var f in n)if(n.hasOwnProperty(f)){var c=t.getElementById(f);if(c){var h=nt(t,c,n[f]);h&&(e=e.concat(h))}}return e.length?e:null}(t,n.elements);return a?(e=a,r=n.settings,i=r.duration,u=e.length,o=null,function(t,n){var a=r.iterations||1/0,l=(r.alternate&&a%2==0)^r.direction>0?i:0,s=t%i,f=1+(t-s)/i;n*=r.direction,r.alternate&&f%2==0&&(n=-n);var c=!1;if(f>a)s=l,c=!0,-1===r.fill&&(s=r.direction>0?0:i);else if(n<0&&(s=i-s),s===o)return!1;o=s;for(var h=0;h<u;h++)e[h](s);return c}):null}function rt(t,n){if(Y=n,!t||!t.root||!Array.isArray(t.animations))return null;var e=function(t){for(var n=document.getElementsByTagName("svg"),e=0;e<n.length;e++)if(n[e].id===t.root&&!n[e].svgatorAnimation)return n[e].svgatorAnimation=!0,n[e];return null}(t);if(!e)return null;var r=t.animations.map((function(t){return et(e,t)})).filter((function(t){return!!t}));return r.length?{svg:e,animations:r,animationSettings:t.animationSettings,options:t.options||void 0}:null}function it(t){return+("0x"+(t.replace(/[^0-9a-fA-F]+/g,"")||27))}function ut(t,n,e){return!t||!e||n>t.length?t:t.substring(0,n)+ut(t.substring(n+1),e,e)}function ot(t){var n=arguments.length>1&&void 0!==arguments[1]?arguments[1]:27;return!t||t%n?t%n:ot(t/n,n)}function at(t,n,e){if(t&&t.length){var r=it(e),i=it(n),u=ot(r)+5,o=ut(t,ot(r,5),u);return o=o.replace(/\x7c$/g,"==").replace(/\x2f$/g,"="),o=function(t,n,e){var r=+("0x"+t.substring(0,4));t=t.substring(4);for(var i=n%r+e%27,u=[],o=0;o<t.length;o+=2)if("|"!==t[o]){var a=+("0x"+t[o]+t[o+1])-i;u.push(a)}else{var l=+("0x"+t.substring(o+1,o+1+4))-i;o+=3,u.push(l)}return String.fromCharCode.apply(String,u)}(o=(o=atob(o)).replace(/[\x41-\x5A]/g,""),i,r),o=JSON.parse(o)}}var lt=[{key:"alternate",def:!1},{key:"fill",def:1},{key:"iterations",def:0},{key:"direction",def:1},{key:"speed",def:1},{key:"fps",def:100}],st=function(){function t(n,e){var i=this,u=arguments.length>2&&void 0!==arguments[2]?arguments[2]:null;r(this,t),this._id=0,this._running=!1,this._rollingBack=!1,this._animations=n,this._settings=e,(!u||u<"2022-05-02")&&delete this._settings.speed,lt.forEach((function(t){i._settings[t.key]=i._settings[t.key]||t.def})),this.duration=e.duration,this.offset=e.offset||0,this.rollbackStartOffset=0}return u(t,[{key:"alternate",get:function(){return this._settings.alternate}},{key:"fill",get:function(){return this._settings.fill}},{key:"iterations",get:function(){return this._settings.iterations}},{key:"direction",get:function(){return this._settings.direction}},{key:"speed",get:function(){return this._settings.speed}},{key:"fps",get:function(){return this._settings.fps}},{key:"maxFiniteDuration",get:function(){return this.iterations>0?this.iterations*this.duration:this.duration}},{key:"_apply",value:function(t){for(var n=arguments.length>1&&void 0!==arguments[1]?arguments[1]:{},e=this._animations,r=e.length,i=0,u=0;u<r;u++)n[u]?i++:(n[u]=e[u](t,1),n[u]&&i++);return i}},{key:"_rollback",value:function(t){var n=this,e=1/0,r=null;this.rollbackStartOffset=t,this._rollingBack=!0,this._running=!0;this._id=window.requestAnimationFrame((function i(u){if(n._rollingBack){null==r&&(r=u);var o=Math.round(t-(u-r)*n.speed);if(o>n.duration&&e!==1/0){var a=!!n.alternate&&o/n.duration%2>1,l=o%n.duration;o=(l+=a?n.duration:0)||n.duration}var s=(n.fps?1e3/n.fps:0)*n.speed,f=Math.max(0,o);f<e-s&&(n.offset=f,e=f,n._apply(f));var c=n.iterations>0&&-1===n.fill&&o>=n.maxFiniteDuration;(o<=0||n.offset<o||c)&&n.stop(),n._id=window.requestAnimationFrame(i)}}))}},{key:"_start",value:function(){var t=this,n=arguments.length>0&&void 0!==arguments[0]?arguments[0]:0,e=-1/0,r=null,i={};this._running=!0;var u=function u(o){null==r&&(r=o);var a=Math.round((o-r)*t.speed+n),l=(t.fps?1e3/t.fps:0)*t.speed;if(a>e+l&&!t._rollingBack&&(t.offset=a,e=a,t._apply(a,i)===t._animations.length))return void t.pause(!0);t._id=window.requestAnimationFrame(u)};this._id=window.requestAnimationFrame(u)}},{key:"_pause",value:function(){this._id&&window.cancelAnimationFrame(this._id),this._running=!1}},{key:"play",value:function(){if(!this._running)return this._rollingBack?this._rollback(this.offset):this._start(this.offset)}},{key:"stop",value:function(){this._pause(),this.offset=0,this.rollbackStartOffset=0,this._rollingBack=!1,this._apply(0)}},{key:"reachedToEnd",value:function(){return this.iterations>0&&this.offset>=this.iterations*this.duration}},{key:"restart",value:function(){var t=arguments.length>0&&void 0!==arguments[0]&&arguments[0];this.stop(t),this.play(t)}},{key:"pause",value:function(){this._pause()}},{key:"reverse",value:function(){this.direction=-this.direction}}],[{key:"build",value:function(t,n){delete t.animationSettings,t.options=at(t.options,t.root,"5c7f360c"),t.animations.map((function(n){n.settings=at(n.s,t.root,"5c7f360c"),delete n.s,t.animationSettings||(t.animationSettings=n.settings)}));var e=t.version;if(!(t=rt(t,n)))return null;var r=t.options||{},i=new this(t.animations,t.animationSettings,e);return{el:t.svg,options:r,player:i}}},{key:"push",value:function(t){return this.build(t)}},{key:"init",value:function(){var t=this,n=window.__SVGATOR_PLAYER__&&window.__SVGATOR_PLAYER__["5c7f360c"];Array.isArray(n)&&n.splice(0).forEach((function(n){return t.build(n)}))}}]),t}();function ft(t){return d(t)+""}function ct(t){var n=arguments.length>1&&void 0!==arguments[1]?arguments[1]:" ";return t&&t.length?t.map(ft).join(n):""}function ht(t){if(!t)return"transparent";if(null==t.a||t.a>=1){var n=function(t){return 1===(t=parseInt(t).toString(16)).length?"0"+t:t},e=function(t){return t.charAt(0)===t.charAt(1)},r=n(t.r),i=n(t.g),u=n(t.b);return e(r)&&e(i)&&e(u)&&(r=r.charAt(0),i=i.charAt(0),u=u.charAt(0)),"#"+r+i+u}return"rgba("+t.r+","+t.g+","+t.b+","+t.a+")"}function vt(t){return t?"url(#"+t+")":"none"}!function(){for(var t=0,n=["ms","moz","webkit","o"],e=0;e<n.length&&!window.requestAnimationFrame;++e)window.requestAnimationFrame=window[n[e]+"RequestAnimationFrame"],window.cancelAnimationFrame=window[n[e]+"CancelAnimationFrame"]||window[n[e]+"CancelRequestAnimationFrame"];window.requestAnimationFrame||(window.requestAnimationFrame=function(n){var e=Date.now(),r=Math.max(0,16-(e-t)),i=window.setTimeout((function(){n(e+r)}),r);return t=e+r,i},window.cancelAnimationFrame=window.clearTimeout)}();var yt={f:null,i:function(t,n,e){return 0===t?n:1===t?e:{x:B(t,n.x,e.x),y:B(t,n.y,e.y)}},u:function(t,n){return function(e){var r=n(e);t.setAttribute("rx",ft(r.x)),t.setAttribute("ry",ft(r.y))}}},gt={f:null,i:function(t,n,e){return 0===t?n:1===t?e:{width:B(t,n.width,e.width),height:B(t,n.height,e.height)}},u:function(t,n){return function(e){var r=n(e);t.setAttribute("width",ft(r.width)),t.setAttribute("height",ft(r.height))}}};Object.freeze({M:2,L:2,Z:0,H:1,V:1,C:6,Q:4,T:2,S:4,A:7});var dt={},pt=null;function mt(t){var n=function(){if(pt)return pt;if("object"!==("undefined"==typeof document?"undefined":e(document))||!document.createElementNS)return{};var t=document.createElementNS("http://www.w3.org/2000/svg","svg");return t&&t.style?(t.style.position="absolute",t.style.opacity="0.01",t.style.zIndex="-9999",t.style.left="-9999px",t.style.width="1px",t.style.height="1px",pt={svg:t}):{}}().svg;if(!n)return function(t){return null};var r=document.createElementNS(n.namespaceURI,"path");r.setAttributeNS(null,"d",t),r.setAttributeNS(null,"fill","none"),r.setAttributeNS(null,"stroke","none"),n.appendChild(r);var i=r.getTotalLength();return function(t){var n=r.getPointAtLength(i*t);return{x:n.x,y:n.y}}}function bt(t){return dt[t]?dt[t]:dt[t]=mt(t)}function wt(t,n,e,r){if(!t||!r)return!1;var i=["M",t.x,t.y];if(n&&e&&(i.push("C"),i.push(n.x),i.push(n.y),i.push(e.x),i.push(e.y)),n?!e:e){var u=n||e;i.push("Q"),i.push(u.x),i.push(u.y)}return n||e||i.push("L"),i.push(r.x),i.push(r.y),i.join(" ")}function xt(t,n,e,r){var i=arguments.length>4&&void 0!==arguments[4]?arguments[4]:1,u=wt(t,n,e,r),o=bt(u);try{return o(i)}catch(t){return null}}function At(t,n,e){return t+(n-t)*e}function kt(t,n,e){var r=arguments.length>3&&void 0!==arguments[3]&&arguments[3],i={x:At(t.x,n.x,e),y:At(t.y,n.y,e)};return r&&(i.a=_t(t,n)),i}function _t(t,n){return Math.atan2(n.y-t.y,n.x-t.x)}function St(t,n,e,r){var i=1-r;return i*i*t+2*i*r*n+r*r*e}function Ot(t,n,e,r){return 2*(1-r)*(n-t)+2*r*(e-n)}function jt(t,n,e,r){var i=arguments.length>4&&void 0!==arguments[4]&&arguments[4],u=xt(t,n,null,e,r);return u||(u={x:St(t.x,n.x,e.x,r),y:St(t.y,n.y,e.y,r)}),i&&(u.a=Mt(t,n,e,r)),u}function Mt(t,n,e,r){return Math.atan2(Ot(t.y,n.y,e.y,r),Ot(t.x,n.x,e.x,r))}function Pt(t,n,e,r,i){var u=i*i;return i*u*(r-t+3*(n-e))+3*u*(t+e-2*n)+3*i*(n-t)+t}function Et(t,n,e,r,i){var u=1-i;return 3*(u*u*(n-t)+2*u*i*(e-n)+i*i*(r-e))}function It(t,n,e,r,i){var u=arguments.length>5&&void 0!==arguments[5]&&arguments[5],o=xt(t,n,e,r,i);return o||(o={x:Pt(t.x,n.x,e.x,r.x,i),y:Pt(t.y,n.y,e.y,r.y,i)}),u&&(o.a=Rt(t,n,e,r,i)),o}function Rt(t,n,e,r,i){return Math.atan2(Et(t.y,n.y,e.y,r.y,i),Et(t.x,n.x,e.x,r.x,i))}function Ft(t,n,e){var r=arguments.length>3&&void 0!==arguments[3]&&arguments[3];if(Tt(n)){if(qt(e))return jt(n,e.start,e,t,r)}else if(Tt(e)){if(Bt(n))return jt(n,n.end,e,t,r)}else{if(Bt(n))return qt(e)?It(n,n.end,e.start,e,t,r):jt(n,n.end,e,t,r);if(qt(e))return jt(n,e.start,e,t,r)}return kt(n,e,t,r)}function Nt(t,n,e){var r=Ft(t,n,e,!0);return r.a=function(t){return arguments.length>1&&void 0!==arguments[1]&&arguments[1]?t+Math.PI:t}(r.a)/m,r}function Tt(t){return!t.type||"corner"===t.type}function qt(t){return null!=t.start&&!Tt(t)}function Bt(t){return null!=t.end&&!Tt(t)}var Lt=new N;var Ct={f:ft,i:q},Dt={f:ft,i:L};function zt(t,n,e){return t.map((function(t){return function(t,n,e){var r=t.v;if(!r||"g"!==r.t||r.s||!r.v||!r.r)return t;var i=e.getElementById(r.r),u=i&&i.querySelectorAll("stop")||[];return r.s=r.v.map((function(t,n){var e=u[n]&&u[n].getAttribute("offset");return{c:t,o:e=d(parseInt(e)/100)}})),delete r.v,t}(t,0,e)}))}var Vt={gt:"gradientTransform",c:{x:"cx",y:"cy"},rd:"r",f:{x:"x1",y:"y1"},to:{x:"x2",y:"y2"}};function Gt(t,n,r,i,u,o,a,l){return zt(t,0,l),n=function(t,n,e){for(var r,i,u,o=t.length-1,a={},l=0;l<=o;l++)(r=t[l]).e&&(r.e=n(r.e)),r.v&&"g"===(i=r.v).t&&i.r&&(u=e.getElementById(i.r))&&(a[i.r]={e:u,s:u.querySelectorAll("stop")});return a}(t,i,l),function(i){var u=r(i,t,Yt);if(!u)return"none";if("c"===u.t)return ht(u.v);if("g"===u.t){if(!n[u.r])return vt(u.r);var o=n[u.r];return function(t,n){for(var e=t.s,r=e.length;r<n.length;r++){var i=e[e.length-1].cloneNode();i.id=Qt(i.id),t.e.appendChild(i),e=t.s=t.e.querySelectorAll("stop")}for(var u=0,o=e.length,a=n.length-1;u<o;u++)e[u].setAttribute("stop-color",ht(n[Math.min(u,a)].c)),e[u].setAttribute("offset",n[Math.min(u,a)].o)}(o,u.s),Object.keys(Vt).forEach((function(t){if(void 0!==u[t])if("object"!==e(Vt[t])){var n,r="gt"===t?(n=u[t],Array.isArray(n)?"matrix("+n.join(" ")+")":""):u[t],i=Vt[t];o.e.setAttribute(i,r)}else Object.keys(Vt[t]).forEach((function(n){if(void 0!==u[t][n]){var e=u[t][n],r=Vt[t][n];o.e.setAttribute(r,e)}}))})),vt(u.r)}return"none"}}function Yt(t,e,r){if(0===t)return e;if(1===t)return r;if(e&&r){var i=e.t;if(i===r.t)switch(e.t){case"c":return{t:i,v:z(t,e.v,r.v)};case"g":if(e.r===r.r){var u={t:i,s:$t(t,e.s,r.s),r:e.r};return e.gt&&r.gt&&(u.gt=function(t,n,e){var r=n.length;if(r!==e.length)return T(t,n,e);for(var i=new Array(r),u=0;u<r;u++)i[u]=q(t,n[u],e[u]);return i}(t,e.gt,r.gt)),e.c?(u.c=C(t,e.c,r.c),u.rd=B(t,e.rd,r.rd)):e.f&&(u.f=C(t,e.f,r.f),u.to=C(t,e.to,r.to)),u}}if("c"===e.t&&"g"===r.t||"c"===r.t&&"g"===e.t){var o="c"===e.t?e:r,a="g"===e.t?n({},e):n({},r),l=a.s.map((function(t){return{c:o.v,o:t.o}}));return a.s="c"===e.t?$t(t,l,a.s):$t(t,a.s,l),a}}return T(t,e,r)}function $t(t,n,e){if(n.length===e.length)return n.map((function(n,r){return Ut(t,n,e[r])}));for(var r=Math.max(n.length,e.length),i=[],u=0;u<r;u++){var o=Ut(t,n[Math.min(u,n.length-1)],e[Math.min(u,e.length-1)]);i.push(o)}return i}function Ut(t,n,e){return{o:L(t,n.o,e.o||0),c:z(t,n.c,e.c||{})}}function Qt(t){return t.replace(/-fill-([0-9]+)$/,(function(t,n){return"-fill-"+(+n+1)}))}var Ht={fill:Gt,"fill-opacity":Dt,stroke:Gt,"stroke-opacity":Dt,"stroke-width":Ct,"stroke-dashoffset":{f:ft,i:q},"stroke-dasharray":{f:function(t){var n=arguments.length>1&&void 0!==arguments[1]?arguments[1]:" ";return t&&t.length>0&&(t=t.map((function(t){return d(t,4)}))),ct(t,n)},i:function(t,n,e){var r,i,u,o=n.length,a=e.length;if(o!==a)if(0===o)n=V(o=a,0);else if(0===a)a=o,e=V(o,0);else{var l=(u=(r=o)*(i=a)/function(t,n){for(var e;n;)e=n,n=t%n,t=e;return t||1}(r,i))<0?-u:u;n=G(n,Math.floor(l/o)),e=G(e,Math.floor(l/a)),o=a=l}for(var s=[],f=0;f<o;f++)s.push(d(B(t,n[f],e[f])));return s}},opacity:Dt,transform:function(t,n,r,i){if(!(t=function(t,n){if(!t||"object"!==e(t))return null;var r=!1;for(var i in t)t.hasOwnProperty(i)&&(t[i]&&t[i].length?(t[i].forEach((function(t){t.e&&(t.e=n(t.e))})),r=!0):delete t[i]);return r?t:null}(t,i)))return null;var u=function(e,i,u){var o=arguments.length>3&&void 0!==arguments[3]?arguments[3]:null;return t[e]?r(i,t[e],u):n&&n[e]?n[e]:o};return n&&n.a&&t.o?function(n){var e=r(n,t.o,Nt);return Lt.recomposeSelf(e,u("r",n,q,0)+e.a,u("k",n,C),u("s",n,C),u("t",n,C)).toString()}:function(t){return Lt.recomposeSelf(u("o",t,Ft,null),u("r",t,q,0),u("k",t,C),u("s",t,C),u("t",t,C)).toString()}},r:Ct,"#size":gt,"#radius":yt,_:function(t,n){if(Array.isArray(t))for(var e=0;e<t.length;e++)this[t[e]]=n;else this[t]=n}},Jt=function(t){!function(t,n){if("function"!=typeof n&&null!==n)throw new TypeError("Super expression must either be null or a function");t.prototype=Object.create(n&&n.prototype,{constructor:{value:t,writable:!0,configurable:!0}}),n&&l(t,n)}(o,t);var n,e,i=(n=o,e=s(),function(){var t,r=a(n);if(e){var i=a(this).constructor;t=Reflect.construct(r,arguments,i)}else t=r.apply(this,arguments);return c(this,t)});function o(){return r(this,o),i.apply(this,arguments)}return u(o,null,[{key:"build",value:function(t){var n=h(a(o),"build",this).call(this,t,Ht);if(!n)return null;n.el,n.options,function(t,n,e){t.play()}(n.player)}}]),o}(st);return Jt.init(),Jt}));
(function(s,i,o,w,a,b){w[o]=w[o]||{};w[o][s]=w[o][s]||[];w[o][s].push(i);})('5c7f360c',{"root":"eAPFqnwKBH81","version":"2022-05-04","animations":[{"elements":{"eAPFqnwKBH820":{"transform":{"data":{"o":{"x":247.910011,"y":238.949989,"type":"corner"},"t":{"x":-247.910011,"y":-238.949989}},"keys":{"s":[{"t":0,"v":{"x":1,"y":1}},{"t":1000,"v":{"x":1.307121,"y":1.310221}},{"t":2000,"v":{"x":0.996892,"y":1.006317}}]}}},"eAPFqnwKBH840":{"transform":{"data":{"o":{"x":315.482254,"y":224.348587,"type":"corner"},"t":{"x":-315.482254,"y":-224.348587}},"keys":{"r":[{"t":0,"v":0},{"t":1000,"v":28.523309},{"t":2000,"v":0.267201}]}}},"eAPFqnwKBH877":{"transform":{"data":{"t":{"x":-191.358528,"y":-313.790482}},"keys":{"o":[{"t":0,"v":{"x":181.419105,"y":319.612988,"type":"corner"}},{"t":1000,"v":{"x":141.014202,"y":370.877291,"type":"corner"}},{"t":2000,"v":{"x":185.157089,"y":314.389786,"type":"corner","start":{"x":185.157089,"y":314.389786}}}]}}}},"s":"MVDA1M2NmNzZiOGM5YzOZiNWM4TGJkYzNjMjcI2OGU4Nk44NDg0ODQ4QMDc2QWI4YmRjNmI5YGjdjOGJkYzNjMjc2OGDU4NTgwNzZCYmRjOGIH5YzZiNVljOGJkWWMzKYzJjNzc2OGU4NDgwNHzZiYWJkYzBjMDc2OGMVWODU4MDc2YjVjMGMM4YjljNmMyYjVEYzhiROUU3NjhlYmFiNWMwYBzdiOTgwNzZZYzdjNGKI5YjliODc2OGU4NWQEx"}],"options":"MFDAxMDg4MmY4MDgxNmKU3ZjgxMmY0NzJmNzkI3YzZlNzEyZjhhSw|"},'__SVGATOR_PLAYER__',window)
]]></script>
</svg>
