<?xml version="1.0" encoding="iso-8859-1"?>
<!-- Generator: Adobe Illustrator 18.0.0, SVG Export Plug-In . SVG Version: 6.00 Build 0)  -->
<!DOCTYPE svg PUBLIC "-//W3C//DTD SVG 1.1//EN" "http://www.w3.org/Graphics/SVG/1.1/DTD/svg11.dtd">
<svg version="1.1" id="Capa_1" xmlns="http://www.w3.org/2000/svg" xmlns:xlink="http://www.w3.org/1999/xlink" x="0px" y="0px"
	 viewBox="0 0 295.996 295.996" style="enable-background:new 0 0 295.996 295.996;" xml:space="preserve">
<g>
	<path d="M147.998,0C66.392,0,0,66.392,0,147.998s66.392,147.998,147.998,147.998s147.998-66.392,147.998-147.998
		S229.605,0,147.998,0z M147.998,279.996c-36.256,0-69.143-14.696-93.022-38.44c-9.536-9.482-17.631-20.41-23.934-32.42
		C21.442,190.847,16,170.047,16,147.998C16,75.214,75.214,16,147.998,16c34.523,0,65.987,13.328,89.533,35.102
		c12.208,11.288,22.289,24.844,29.558,39.996c8.27,17.239,12.907,36.538,12.907,56.9
		C279.996,220.782,220.782,279.996,147.998,279.996z"/>
	<circle cx="98.497" cy="114.998" r="16"/>
	<circle cx="197.497" cy="114.998" r="16"/>
	<path d="M138.393,200.578c8.309-1.089,16.84-0.83,25.244,0.928c17.554,3.671,33.322,13.54,44.4,27.789l12.631-9.82
		c-13.402-17.24-32.494-29.184-53.756-33.631c-11.76-2.458-23.729-2.51-35.242-0.397c-2.766-4.549-6.282-9.441-10.598-14.724
		c-8.415-10.3-16.722-18.2-17.07-18.531l-5.504-5.217l-5.503,5.216c-0.35,0.332-8.657,8.231-17.072,18.532
		c-12.236,14.977-18.185,26.889-18.185,36.416c0,22.475,18.285,40.76,40.76,40.76c22.474,0,40.758-18.285,40.758-40.76
		C139.256,205.069,138.957,202.88,138.393,200.578z M98.498,231.898c-13.652,0-24.76-11.107-24.76-24.76
		c0-8.673,13.101-25.674,24.763-37.847c11.659,12.161,24.755,29.153,24.755,37.847C123.256,220.791,112.149,231.898,98.498,231.898z
		"/>
</g>
<g>
</g>
<g>
</g>
<g>
</g>
<g>
</g>
<g>
</g>
<g>
</g>
<g>
</g>
<g>
</g>
<g>
</g>
<g>
</g>
<g>
</g>
<g>
</g>
<g>
</g>
<g>
</g>
<g>
</g>
</svg>
