<svg xmlns="http://www.w3.org/2000/svg" viewBox="0 0 500 500"><g id="freepik--film-roll-2--inject-637"><circle cx="216.68" cy="155.93" r="68.89" transform="translate(-46.8 198.89) rotate(-45)" style="fill:#7E57C2"></circle><g style="opacity:0.30000000000000004"><circle cx="216.68" cy="155.93" r="68.89" transform="translate(-46.8 198.89) rotate(-45)"></circle></g><circle cx="214.6" cy="156.84" r="54.62" style="fill:#263238"></circle><path d="M260.88,156.84s0-.25-.06-.75-.08-1.24-.14-2.2c0-.48-.06-1-.1-1.61s-.18-1.24-.29-1.94-.23-1.45-.35-2.25-.4-1.63-.61-2.53a44,44,0,0,0-5.12-12.28,46,46,0,0,0-11.72-13.08l-2-1.49c-.7-.46-1.43-.88-2.16-1.33s-1.45-.93-2.25-1.3l-2.39-1.14-1.22-.58-1.28-.47L228.6,113c-.88-.29-1.8-.48-2.71-.73a23.51,23.51,0,0,0-2.79-.63,44.43,44.43,0,0,0-5.83-.68c-1,0-2-.13-3-.11l-3.05.16c-.51,0-1,0-1.53.1l-1.54.23c-1,.17-2.07.29-3.1.5a49.35,49.35,0,0,0-6.14,1.81l-1.52.56-.77.28-.74.36-3,1.43c-1,.53-1.91,1.15-2.87,1.72-.47.3-1,.56-1.42.9l-1.36,1A51.94,51.94,0,0,0,182,124.3l-2.34,2.58-.59.64-.53.7-1.05,1.41-1.06,1.42-.93,1.51-.92,1.53-.47.76-.39.81-1.56,3.24L171,142.31a45.51,45.51,0,0,0,0,29.05c.41,1.14.83,2.28,1.24,3.41l1.57,3.25.39.8.47.77.92,1.52.93,1.52,1.06,1.41,1.05,1.41.53.7.59.65,2.34,2.58a51.94,51.94,0,0,0,5.22,4.44l1.36,1c.45.34.95.6,1.42.9,1,.57,1.89,1.19,2.87,1.72l3,1.43.74.36.76.28,1.53.56a49.35,49.35,0,0,0,6.14,1.81c1,.21,2.08.33,3.1.5l1.54.23c.51.07,1,.07,1.54.1l3,.16c1,0,2-.08,3-.11a44.28,44.28,0,0,0,5.82-.68,23.51,23.51,0,0,0,2.79-.63c.91-.25,1.83-.44,2.71-.73l2.6-.94,1.27-.47,1.22-.58,2.39-1.14c.8-.37,1.51-.88,2.25-1.3s1.47-.87,2.17-1.33l2-1.49a45.87,45.87,0,0,0,11.72-13.08,43.92,43.92,0,0,0,5.12-12.29,25.43,25.43,0,0,0,.61-2.52c.12-.8.24-1.55.35-2.25s.23-1.34.29-1.94.07-1.13.1-1.61c.06-1,.1-1.69.14-2.2s.06-.75.06-.75,0,.25,0,.75-.05,1.25-.09,2.2c0,.49,0,1-.07,1.63s-.17,1.24-.26,1.94-.22,1.46-.34,2.26a24.69,24.69,0,0,1-.58,2.54,44.15,44.15,0,0,1-5.07,12.39,46,46,0,0,1-11.75,13.22l-2,1.51c-.7.46-1.45.89-2.18,1.35s-1.46,1-2.26,1.31l-2.41,1.17-1.23.58-1.29.48-2.61,1c-.89.3-1.82.49-2.74.74a26.07,26.07,0,0,1-2.81.65,45,45,0,0,1-5.88.69c-1,0-2,.14-3,.12l-3.08-.15c-.51,0-1,0-1.55-.1l-1.55-.23c-1-.17-2.09-.29-3.13-.5a49.86,49.86,0,0,1-6.21-1.81L197.2,200c-.25-.1-.51-.18-.77-.29l-.75-.36-3-1.44c-1-.54-1.93-1.15-2.9-1.73a16.6,16.6,0,0,1-1.44-.91l-1.37-1a52,52,0,0,1-5.29-4.48q-1.17-1.31-2.37-2.61l-.59-.65-.54-.71-1.06-1.43L176,182.91l-.93-1.53-.94-1.54-.47-.77-.4-.82c-.52-1.09-1.05-2.18-1.58-3.28l-1.27-3.45a46,46,0,0,1,0-29.37l1.26-3.45c.53-1.1,1.06-2.19,1.58-3.28.14-.27.26-.55.4-.81l.47-.78.94-1.54.94-1.53,1.07-1.43,1.07-1.42.53-.71.6-.66c.79-.87,1.58-1.73,2.36-2.6a53.13,53.13,0,0,1,5.29-4.48l1.37-1a16.6,16.6,0,0,1,1.44-.91c1-.58,1.91-1.2,2.9-1.73l3-1.44.75-.36c.26-.11.52-.19.77-.29l1.55-.56a46.67,46.67,0,0,1,6.21-1.81c1-.22,2.09-.34,3.13-.51l1.55-.23c.51-.07,1-.07,1.55-.1l3.08-.15c1,0,2,.08,3,.12a45.19,45.19,0,0,1,5.88.69,26.07,26.07,0,0,1,2.81.65c.92.25,1.85.44,2.74.74l2.61,1,1.29.47,1.22.59,2.41,1.17a25.28,25.28,0,0,1,2.27,1.31c.73.46,1.47.89,2.18,1.35l2,1.5a46.11,46.11,0,0,1,11.75,13.23,44,44,0,0,1,5.07,12.38,25.94,25.94,0,0,1,.58,2.54c.12.81.23,1.57.34,2.27s.21,1.35.26,1.94.05,1.14.07,1.63c0,1,.07,1.69.09,2.2S260.88,156.84,260.88,156.84Z" style="fill:#455a64"></path><path d="M256.34,156.84s0-.23-.06-.68l-.13-2c0-.43,0-.92-.08-1.46s-.17-1.11-.27-1.74-.2-1.31-.32-2-.36-1.47-.54-2.28a40,40,0,0,0-4.63-11.07,41.18,41.18,0,0,0-10.57-11.79c-.59-.45-1.19-.89-1.8-1.34s-1.29-.8-1.95-1.2-1.31-.85-2-1.17l-2.15-1-1.1-.52-1.15-.42-2.34-.85c-.79-.26-1.62-.43-2.45-.65a20.78,20.78,0,0,0-2.51-.57,37.65,37.65,0,0,0-5.25-.61c-.89,0-1.8-.12-2.71-.1l-2.74.14c-.46,0-.93,0-1.39.09l-1.38.21c-.93.15-1.87.26-2.8.46a43,43,0,0,0-5.53,1.62,44.47,44.47,0,0,0-5.41,2.38c-.88.47-1.72,1-2.59,1.54-.42.27-.88.51-1.28.81l-1.22.92a45.32,45.32,0,0,0-4.71,4l-2.11,2.32-.53.58-.47.64-.95,1.27-1,1.27L179.4,135l-.84,1.37-.42.69-.35.73-1.41,2.92c-.37,1-.75,2.05-1.13,3.08a41.1,41.1,0,0,0,0,26.18c.38,1,.75,2,1.13,3.07l1.41,2.93.35.72.42.69.83,1.38.84,1.36,1,1.28.95,1.27.48.63.53.59c.71.77,1.41,1.55,2.11,2.32a45.5,45.5,0,0,0,4.71,4l1.22.92c.4.3.86.54,1.28.81.87.51,1.71,1.07,2.59,1.54a41.57,41.57,0,0,0,5.41,2.38,44.67,44.67,0,0,0,5.53,1.63c.93.19,1.87.3,2.8.45l1.38.21c.46.06.93.06,1.39.09l2.75.14c.9,0,1.81-.07,2.7-.1a37.47,37.47,0,0,0,5.25-.61,20.94,20.94,0,0,0,2.52-.57c.82-.22,1.65-.39,2.44-.65l2.34-.85,1.15-.42,1.1-.52,2.16-1c.72-.33,1.35-.79,2-1.17s1.33-.78,2-1.2l1.79-1.34a41.38,41.38,0,0,0,10.58-11.79A40.28,40.28,0,0,0,254.94,167a23.19,23.19,0,0,0,.54-2.28c.12-.72.22-1.4.32-2s.21-1.21.27-1.74.06-1,.08-1.46l.13-2c0-.45.06-.68.06-.68s0,.23,0,.68,0,1.12-.07,2q0,.66-.06,1.47c-.05.54-.16,1.12-.24,1.75s-.2,1.32-.3,2a22.72,22.72,0,0,1-.53,2.3,39.42,39.42,0,0,1-4.56,11.17A41.71,41.71,0,0,1,240,190.17l-1.81,1.35c-.64.42-1.31.81-2,1.22a22.67,22.67,0,0,1-2,1.19L232,195l-1.11.53-1.16.43-2.36.86c-.8.27-1.64.45-2.47.67a21.31,21.31,0,0,1-2.54.59,38.19,38.19,0,0,1-5.3.62c-.91,0-1.82.13-2.74.12l-2.78-.14c-.46,0-.93,0-1.4-.09l-1.4-.21c-.93-.15-1.88-.26-2.82-.46a42,42,0,0,1-5.6-1.63,44.14,44.14,0,0,1-5.49-2.4c-.88-.48-1.73-1-2.61-1.56-.43-.27-.89-.5-1.3-.81l-1.24-.93a47.65,47.65,0,0,1-4.77-4c-.71-.78-1.42-1.57-2.14-2.35l-.53-.59-.49-.64-1-1.29-1-1.29L179,179l-.85-1.39-.42-.7-.36-.74c-.48-1-1-2-1.43-3l-1.14-3.11a41.57,41.57,0,0,1,0-26.51l1.14-3.11,1.43-3,.36-.73.43-.7.84-1.39.85-1.38,1-1.3,1-1.28.48-.64.54-.59,2.13-2.35a47.65,47.65,0,0,1,4.77-4l1.24-.93c.41-.31.87-.54,1.3-.82.88-.52,1.73-1.07,2.62-1.55a45.63,45.63,0,0,1,11.08-4c.94-.2,1.89-.3,2.82-.46l1.4-.21c.47-.06.94-.06,1.4-.09l2.78-.13c.92,0,1.83.07,2.74.11a38.37,38.37,0,0,1,5.3.62,21.77,21.77,0,0,1,2.54.59c.83.22,1.67.4,2.47.66l2.36.87,1.16.43,1.1.53,2.18,1c.72.33,1.36.8,2,1.19s1.33.8,2,1.22l1.8,1.35a41.43,41.43,0,0,1,10.6,11.94,39.19,39.19,0,0,1,4.57,11.17,23.19,23.19,0,0,1,.53,2.29c.1.73.2,1.41.3,2.05s.19,1.21.24,1.75,0,1,.06,1.47c0,.86.06,1.52.07,2S256.34,156.84,256.34,156.84Z" style="fill:#455a64"></path><path d="M250,157.34s0-.19-.05-.57-.06-1-.11-1.68l-.08-1.24c0-.45-.14-.94-.22-1.48a26,26,0,0,0-.74-3.65,34.14,34.14,0,0,0-3.92-9.38,35.41,35.41,0,0,0-23.78-16.56,34.23,34.23,0,0,0-4.45-.51c-.76,0-1.52-.1-2.29-.09l-2.33.12c-.39,0-.78,0-1.17.08l-1.18.18c-.78.13-1.58.22-2.36.38a38.5,38.5,0,0,0-4.69,1.38,37.08,37.08,0,0,0-4.58,2c-.75.4-1.46.87-2.19,1.3a17.05,17.05,0,0,0-2.12,1.47,38.48,38.48,0,0,0-4,3.39,37.54,37.54,0,0,0-3.44,4.07,33.89,33.89,0,0,0-5,9.68,34.88,34.88,0,0,0,0,22.18c.32.87.64,1.74.95,2.6l1.2,2.48a7.72,7.72,0,0,0,.65,1.2l.71,1.16.7,1.16.81,1.08a38.72,38.72,0,0,0,3.45,4.08,40.79,40.79,0,0,0,4,3.39,19.12,19.12,0,0,0,2.13,1.46c.73.44,1.44.9,2.18,1.31a36.31,36.31,0,0,0,4.59,2,36.8,36.8,0,0,0,4.69,1.38c.79.16,1.58.25,2.36.38l1.18.19c.39.05.78,0,1.17.07l2.33.12c.77,0,1.53-.06,2.29-.09a30.75,30.75,0,0,0,4.45-.51,35.41,35.41,0,0,0,23.78-16.56,33.83,33.83,0,0,0,3.92-9.38,25.67,25.67,0,0,0,.74-3.65c.08-.53.18-1,.22-1.48s.06-.86.08-1.24c0-.72.08-1.28.11-1.67s.05-.58.05-.58,0,.2,0,.58,0,1-.06,1.68c0,.37,0,.79-.05,1.24s-.13.95-.2,1.49A25.54,25.54,0,0,1,249,166a33.64,33.64,0,0,1-3.87,9.48,35.64,35.64,0,0,1-24,16.84,33.13,33.13,0,0,1-4.5.53c-.77,0-1.54.1-2.32.09l-2.36-.11c-.4,0-.8,0-1.19-.08l-1.19-.18c-.79-.13-1.6-.22-2.4-.38a36.11,36.11,0,0,1-4.75-1.39,37.35,37.35,0,0,1-4.66-2c-.75-.41-1.47-.88-2.22-1.32a19.53,19.53,0,0,1-2.15-1.48,40.94,40.94,0,0,1-4.05-3.44,39.93,39.93,0,0,1-3.5-4.13l-.82-1.09-.72-1.18-.72-1.18a9.46,9.46,0,0,1-.66-1.21l-1.21-2.52c-.33-.87-.65-1.76-1-2.64a35.31,35.31,0,0,1,0-22.5,34.47,34.47,0,0,1,5.1-9.82,39.93,39.93,0,0,1,3.5-4.13,39.53,39.53,0,0,1,4.05-3.43,18.24,18.24,0,0,1,2.15-1.48c.75-.44,1.47-.92,2.22-1.32a38.65,38.65,0,0,1,9.41-3.42c.8-.17,1.61-.26,2.4-.39l1.19-.18c.39,0,.79,0,1.19-.07l2.36-.12c.78,0,1.55.07,2.32.1a33.13,33.13,0,0,1,4.5.53,35.58,35.58,0,0,1,24,16.83,33.76,33.76,0,0,1,3.87,9.48,25.54,25.54,0,0,1,.69,3.68c.07.54.16,1,.2,1.49s0,.87.05,1.24c0,.73,0,1.29.06,1.69S250,157.34,250,157.34Z" style="fill:#455a64"></path><path d="M214.86,78.24a78.6,78.6,0,1,0,78.6,78.6A78.59,78.59,0,0,0,214.86,78.24Zm29.72,24.19a18.91,18.91,0,1,1-18.92,18.91A18.91,18.91,0,0,1,244.58,102.43Zm-14.15,57.15a2.44,2.44,0,1,1,0-3.45A2.44,2.44,0,0,1,230.43,159.58Zm-10,8.89a2.44,2.44,0,1,1,0,3.45A2.43,2.43,0,0,1,220.45,168.47Zm-5.85-3.41a7.72,7.72,0,1,1,7.71-7.72A7.72,7.72,0,0,1,214.6,165.06Zm8.89-20.86a2.44,2.44,0,1,1-3.45,0A2.44,2.44,0,0,1,223.49,144.2ZM200.86,95.63A18.92,18.92,0,1,1,182,114.55,18.92,18.92,0,0,1,200.86,95.63Zm1.73,64.17a2.44,2.44,0,1,1,0-3.46A2.44,2.44,0,0,1,202.59,159.8Zm-52-9.2a18.91,18.91,0,1,1,18.91,18.92A18.91,18.91,0,0,1,150.6,150.6Zm36.08,59.93a18.91,18.91,0,1,1,18.91-18.91A18.9,18.9,0,0,1,186.68,210.53Zm19.64-66.16a2.44,2.44,0,1,1,0,3.45A2.44,2.44,0,0,1,206.32,144.37Zm3.54,27.52a2.44,2.44,0,1,1,0-3.45A2.43,2.43,0,0,1,209.86,171.89Zm20,47.16a18.91,18.91,0,1,1,18.91-18.91A18.91,18.91,0,0,1,229.86,219.05ZM260.34,184a18.92,18.92,0,1,1,18.91-18.91A18.91,18.91,0,0,1,260.34,184Z" style="fill:#7E57C2"></path><path d="M214.86,78.24a78.6,78.6,0,1,0,78.6,78.6A78.59,78.59,0,0,0,214.86,78.24Zm29.72,24.19a18.91,18.91,0,1,1-18.92,18.91A18.91,18.91,0,0,1,244.58,102.43Zm-14.15,57.15a2.44,2.44,0,1,1,0-3.45A2.44,2.44,0,0,1,230.43,159.58Zm-10,8.89a2.44,2.44,0,1,1,0,3.45A2.43,2.43,0,0,1,220.45,168.47Zm-5.85-3.41a7.72,7.72,0,1,1,7.71-7.72A7.72,7.72,0,0,1,214.6,165.06Zm8.89-20.86a2.44,2.44,0,1,1-3.45,0A2.44,2.44,0,0,1,223.49,144.2ZM200.86,95.63A18.92,18.92,0,1,1,182,114.55,18.92,18.92,0,0,1,200.86,95.63Zm1.73,64.17a2.44,2.44,0,1,1,0-3.46A2.44,2.44,0,0,1,202.59,159.8Zm-52-9.2a18.91,18.91,0,1,1,18.91,18.92A18.91,18.91,0,0,1,150.6,150.6Zm36.08,59.93a18.91,18.91,0,1,1,18.91-18.91A18.9,18.9,0,0,1,186.68,210.53Zm19.64-66.16a2.44,2.44,0,1,1,0,3.45A2.44,2.44,0,0,1,206.32,144.37Zm3.54,27.52a2.44,2.44,0,1,1,0-3.45A2.43,2.43,0,0,1,209.86,171.89Zm20,47.16a18.91,18.91,0,1,1,18.91-18.91A18.91,18.91,0,0,1,229.86,219.05ZM260.34,184a18.92,18.92,0,1,1,18.91-18.91A18.91,18.91,0,0,1,260.34,184Z" style="fill:none"></path><path d="M260.34,184a.92.92,0,0,1,.31,0l.89-.08a7.89,7.89,0,0,0,1.45-.17,13.17,13.17,0,0,0,1.94-.4,17.92,17.92,0,0,0,5-2.11,18.7,18.7,0,0,0,8-22.48,17.77,17.77,0,0,0-2.55-4.72,17.36,17.36,0,0,0-4-3.94,18.57,18.57,0,0,0-22.06,0,21.08,21.08,0,0,0-2.16,1.83,19.88,19.88,0,0,0-1.8,2.11,17.77,17.77,0,0,0-2.55,4.72,18.75,18.75,0,0,0,8,22.48,18,18,0,0,0,5,2.11,13.17,13.17,0,0,0,1.94.4,7.89,7.89,0,0,0,1.45.17l.89.08.31,0H260l-.9,0a9.38,9.38,0,0,1-1.46-.12,14.64,14.64,0,0,1-2-.36,18.15,18.15,0,0,1-5.09-2.06,19.06,19.06,0,0,1-9.06-12.83,19.24,19.24,0,0,1,.8-10.06,18,18,0,0,1,2.6-4.85,17.26,17.26,0,0,1,4.06-4.06,19,19,0,0,1,22.66,0,17.26,17.26,0,0,1,4.06,4.06,18,18,0,0,1,2.6,4.85,19.13,19.13,0,0,1,.8,10.06,19.06,19.06,0,0,1-9.06,12.83,17.8,17.8,0,0,1-5.09,2.05,13.11,13.11,0,0,1-2,.37,9.38,9.38,0,0,1-1.46.12l-.9,0Z" style="fill:#263238"></path><path d="M229.86,219.05a1.4,1.4,0,0,1,.3,0l.9-.07a10.3,10.3,0,0,0,1.45-.17,15.12,15.12,0,0,0,1.94-.41,18,18,0,0,0,5-2.11,18.73,18.73,0,0,0,8-22.47,17.61,17.61,0,0,0-2.55-4.72,21,21,0,0,0-1.8-2.12,23.71,23.71,0,0,0-2.16-1.83,18.61,18.61,0,0,0-22.06,0,20.06,20.06,0,0,0-2.16,1.83,21,21,0,0,0-1.8,2.12,17.46,17.46,0,0,0-2.55,4.72,18.83,18.83,0,0,0-.83,9.81,18.51,18.51,0,0,0,3.48,7.88,18.76,18.76,0,0,0,5.3,4.79,18.42,18.42,0,0,0,5,2.1,15.24,15.24,0,0,0,2,.41,10.14,10.14,0,0,0,1.45.17l.89.07a1.61,1.61,0,0,1,.31,0,.94.94,0,0,1-.31,0l-.9,0a8.29,8.29,0,0,1-1.46-.12,13,13,0,0,1-2-.36,17.8,17.8,0,0,1-5.09-2.05,19,19,0,0,1-8.26-22.89,17.59,17.59,0,0,1,2.6-4.86,22.12,22.12,0,0,1,1.84-2.18,22.47,22.47,0,0,1,2.22-1.88,19.07,19.07,0,0,1,22.66,0,22.36,22.36,0,0,1,2.22,1.89,20.91,20.91,0,0,1,1.84,2.17,18.13,18.13,0,0,1,2.6,4.86A19,19,0,0,1,245,211.69a18.94,18.94,0,0,1-5.45,4.81,17.57,17.57,0,0,1-5.09,2.06,13.44,13.44,0,0,1-2,.36,8.43,8.43,0,0,1-1.46.12l-.91,0A.86.86,0,0,1,229.86,219.05Z" style="fill:#263238"></path><path d="M209.86,171.89s.11-.19.28-.53a2.45,2.45,0,0,0,.23-1.5,2.28,2.28,0,0,0-1.31-1.68,2.22,2.22,0,0,0-2.47.44,2.25,2.25,0,0,0-.45,2.48,2.29,2.29,0,0,0,1.69,1.3,2.39,2.39,0,0,0,1.5-.23c.33-.17.5-.31.53-.28s-.1.22-.42.46a2.45,2.45,0,0,1-1.66.41,2.61,2.61,0,0,1-2.07-1.46,2.67,2.67,0,0,1,3.56-3.56,2.61,2.61,0,0,1,1.46,2.07,2.38,2.38,0,0,1-.42,1.66C210.07,171.8,209.88,171.91,209.86,171.89Z" style="fill:#263238"></path><path d="M206.32,144.37s-.11.19-.28.52a2.49,2.49,0,0,0-.22,1.5,2.24,2.24,0,0,0,1.3,1.69,2.21,2.21,0,0,0,2.92-2.92,2.24,2.24,0,0,0-1.69-1.3,2.47,2.47,0,0,0-1.5.22c-.33.17-.5.32-.53.29s.1-.22.43-.46a2.46,2.46,0,0,1,1.65-.42,2.61,2.61,0,0,1,2.08,1.47,2.67,2.67,0,0,1-3.56,3.56,2.61,2.61,0,0,1-1.47-2.08,2.46,2.46,0,0,1,.42-1.65C206.11,144.46,206.31,144.34,206.32,144.37Z" style="fill:#263238"></path><path d="M186.68,210.53l.3,0,.9-.07a10.14,10.14,0,0,0,1.45-.17,13.31,13.31,0,0,0,1.94-.41,18,18,0,0,0,5-2.1,18.92,18.92,0,0,0,5.31-4.79,18.72,18.72,0,0,0,2.65-17.69,17.61,17.61,0,0,0-2.55-4.72,16.84,16.84,0,0,0-4-3.94,18.59,18.59,0,0,0-22.06,0,21.28,21.28,0,0,0-2.16,1.83,21,21,0,0,0-1.8,2.12,17.61,17.61,0,0,0-2.55,4.72,18.83,18.83,0,0,0-.83,9.81,18.64,18.64,0,0,0,3.48,7.88,18.92,18.92,0,0,0,5.31,4.79,17.86,17.86,0,0,0,5,2.1,13.31,13.31,0,0,0,1.94.41,10.14,10.14,0,0,0,1.45.17l.89.07.31,0a.94.94,0,0,1-.31,0h-.9a9.54,9.54,0,0,1-1.46-.13,13,13,0,0,1-2-.36,17.8,17.8,0,0,1-5.09-2,19,19,0,0,1-8.26-22.89,17.86,17.86,0,0,1,2.6-4.86,20.91,20.91,0,0,1,1.84-2.17,21.27,21.27,0,0,1,2.22-1.89,19.07,19.07,0,0,1,22.66,0,21.27,21.27,0,0,1,2.22,1.89,20.91,20.91,0,0,1,1.84,2.17,18.28,18.28,0,0,1,2.6,4.86,19.2,19.2,0,0,1,.8,10.05A19,19,0,0,1,196.41,208a17.8,17.8,0,0,1-5.09,2,13.44,13.44,0,0,1-2,.36,9.54,9.54,0,0,1-1.46.13H187A.9.9,0,0,1,186.68,210.53Z" style="fill:#263238"></path><path d="M150.6,150.6s0,.11,0,.31l.07.89a10,10,0,0,0,.17,1.45,13.7,13.7,0,0,0,.41,1.95,18.11,18.11,0,0,0,2.1,5,18.76,18.76,0,0,0,4.79,5.3,18.51,18.51,0,0,0,7.88,3.48,18.83,18.83,0,0,0,9.81-.83,17.86,17.86,0,0,0,4.72-2.54,22.54,22.54,0,0,0,2.12-1.81,21.19,21.19,0,0,0,1.82-2.16,18.58,18.58,0,0,0,0-22,22.56,22.56,0,0,0-1.83-2.17,21,21,0,0,0-2.12-1.8,17.61,17.61,0,0,0-4.72-2.55,18.72,18.72,0,0,0-9.81-.82,18.51,18.51,0,0,0-7.88,3.48,18.76,18.76,0,0,0-4.79,5.3,18.11,18.11,0,0,0-2.1,5,13.88,13.88,0,0,0-.41,1.94,10.3,10.3,0,0,0-.17,1.45c0,.37-.05.67-.07.9s0,.3,0,.3a1,1,0,0,1,0-.3c0-.24,0-.53,0-.91a9.75,9.75,0,0,1,.13-1.46,13.44,13.44,0,0,1,.36-2,17.8,17.8,0,0,1,2-5.09A19,19,0,0,1,176,132.61a18.28,18.28,0,0,1,4.86,2.6,20.91,20.91,0,0,1,2.17,1.84,23.56,23.56,0,0,1,1.89,2.22,19.07,19.07,0,0,1,0,22.66,21.27,21.27,0,0,1-1.89,2.22,21,21,0,0,1-2.17,1.85,18,18,0,0,1-4.86,2.59,19.1,19.1,0,0,1-10.05.8,18.87,18.87,0,0,1-8-3.61,19.08,19.08,0,0,1-4.81-5.44,18,18,0,0,1-2-5.09,13.32,13.32,0,0,1-.36-2,9.54,9.54,0,0,1-.13-1.46c0-.37,0-.67,0-.9A1.09,1.09,0,0,1,150.6,150.6Z" style="fill:#263238"></path><path d="M202.59,159.8s.11-.2.28-.53a2.46,2.46,0,0,0,.23-1.5,2.28,2.28,0,0,0-1.31-1.69,2.22,2.22,0,1,0-1.23,4.22,2.47,2.47,0,0,0,1.5-.22c.34-.17.5-.32.53-.28s-.1.21-.42.45a2.51,2.51,0,0,1-1.66.42,2.6,2.6,0,0,1-2.07-1.47,2.67,2.67,0,0,1,3.56-3.56,2.62,2.62,0,0,1,1.46,2.08,2.35,2.35,0,0,1-.42,1.65C202.8,159.7,202.61,159.82,202.59,159.8Z" style="fill:#263238"></path><path d="M200.86,95.63a.88.88,0,0,1-.3,0l-.9.08a8,8,0,0,0-1.45.17,13.72,13.72,0,0,0-1.94.4,18.17,18.17,0,0,0-5,2.11,18.86,18.86,0,0,0-5.3,4.78,18.66,18.66,0,0,0-2.65,17.7,17.45,17.45,0,0,0,2.54,4.72,19.88,19.88,0,0,0,1.8,2.11,21.2,21.2,0,0,0,2.17,1.83,18.56,18.56,0,0,0,22,0,20.06,20.06,0,0,0,2.16-1.83,21.23,21.23,0,0,0,1.81-2.11,18,18,0,0,0,2.54-4.72,18.87,18.87,0,0,0,.83-9.82,18.85,18.85,0,0,0-8.78-12.66,18.17,18.17,0,0,0-5-2.11,13.55,13.55,0,0,0-2-.4,7.79,7.79,0,0,0-1.44-.17l-.9-.08a1,1,0,0,1-.31,0h.31l.9,0a9.38,9.38,0,0,1,1.46.12,13.46,13.46,0,0,1,2,.37,17.87,17.87,0,0,1,5.08,2.05A19.06,19.06,0,0,1,219.65,111a19.13,19.13,0,0,1-.8,10.06,17.91,17.91,0,0,1-2.59,4.85,22.44,22.44,0,0,1-1.85,2.18,21.19,21.19,0,0,1-2.22,1.88,19,19,0,0,1-22.66,0,22.26,22.26,0,0,1-2.22-1.88,21,21,0,0,1-1.84-2.18,18.23,18.23,0,0,1-2.6-4.85A19,19,0,0,1,185.68,103a18.94,18.94,0,0,1,5.45-4.81,17.8,17.8,0,0,1,5.09-2.05,13.59,13.59,0,0,1,2-.37,9.57,9.57,0,0,1,1.46-.12l.91,0Z" style="fill:#263238"></path><path d="M223.49,144.2s-.19-.11-.53-.28a2.39,2.39,0,0,0-1.5-.23,2.29,2.29,0,0,0-1.69,1.3,2.21,2.21,0,0,0,2.92,2.93,2.28,2.28,0,0,0,1.31-1.69,2.46,2.46,0,0,0-.23-1.5c-.17-.34-.31-.5-.28-.53s.21.09.45.42a2.4,2.4,0,0,1,.42,1.66,2.61,2.61,0,0,1-1.46,2.07,2.66,2.66,0,0,1-3.56-3.56,2.61,2.61,0,0,1,2.07-1.46,2.4,2.4,0,0,1,1.66.42C223.39,144,223.51,144.18,223.49,144.2Z" style="fill:#263238"></path><path d="M214.6,165.06c0-.06.68,0,1.85-.34a7.69,7.69,0,0,0,4.13-2.82,7.49,7.49,0,0,0,1-7.1,7.33,7.33,0,0,0-2.61-3.46,7.42,7.42,0,0,0-8.81,0,7.33,7.33,0,0,0-2.61,3.46,7.49,7.49,0,0,0,1,7.1,7.73,7.73,0,0,0,4.13,2.82c1.17.31,1.86.28,1.86.34a2.73,2.73,0,0,1-.5,0,5.71,5.71,0,0,1-1.41-.17,7.63,7.63,0,0,1-4.37-2.79,7.89,7.89,0,0,1,1.57-11.19,7.92,7.92,0,0,1,12.49,7.88,7.66,7.66,0,0,1-1.51,3.31,7.57,7.57,0,0,1-4.37,2.79,5.66,5.66,0,0,1-1.41.17A2.66,2.66,0,0,1,214.6,165.06Z" style="fill:#263238"></path><path d="M220.45,168.47s-.11.19-.28.52a2.5,2.5,0,0,0-.23,1.51,2.29,2.29,0,0,0,1.3,1.68,2.21,2.21,0,0,0,2.93-2.92,2.29,2.29,0,0,0-1.69-1.3,2.39,2.39,0,0,0-1.5.23c-.34.16-.5.31-.53.28s.09-.22.42-.46a2.51,2.51,0,0,1,1.66-.42,2.64,2.64,0,0,1,2.07,1.47,2.67,2.67,0,0,1-3.56,3.56,2.61,2.61,0,0,1-1.46-2.07,2.38,2.38,0,0,1,.42-1.66C220.24,168.56,220.43,168.45,220.45,168.47Z" style="fill:#263238"></path><path d="M230.43,159.58s.11-.19.28-.53a2.45,2.45,0,0,0,.23-1.5,2.28,2.28,0,0,0-1.31-1.69,2.21,2.21,0,0,0-2.92,2.93,2.29,2.29,0,0,0,1.69,1.3,2.39,2.39,0,0,0,1.5-.23c.33-.17.5-.31.53-.28s-.1.22-.42.45a2.4,2.4,0,0,1-1.66.42,2.59,2.59,0,0,1-2.07-1.46,2.66,2.66,0,0,1,3.56-3.56,2.61,2.61,0,0,1,1.46,2.07,2.4,2.4,0,0,1-.42,1.66C230.64,159.49,230.45,159.6,230.43,159.58Z" style="fill:#263238"></path><path d="M244.58,102.43l-.31,0-.9.07a10,10,0,0,0-1.44.17,15.24,15.24,0,0,0-2,.41,18.42,18.42,0,0,0-5,2.1,18.76,18.76,0,0,0-5.3,4.79,18.51,18.51,0,0,0-3.48,7.88,18.83,18.83,0,0,0,.83,9.81,17.3,17.3,0,0,0,2.54,4.72,16.63,16.63,0,0,0,4,3.94,18.58,18.58,0,0,0,22,0,21.2,21.2,0,0,0,2.17-1.83,22.43,22.43,0,0,0,1.8-2.12,17.3,17.3,0,0,0,2.54-4.72,18.73,18.73,0,0,0,.83-9.81,18.51,18.51,0,0,0-3.48-7.88,18.76,18.76,0,0,0-5.3-4.79,18.11,18.11,0,0,0-5-2.1,13.7,13.7,0,0,0-1.95-.41,10,10,0,0,0-1.44-.17l-.9-.07-.3,0a.86.86,0,0,1,.3,0h.9a9.76,9.76,0,0,1,1.47.13,13.44,13.44,0,0,1,2,.36,17.8,17.8,0,0,1,5.09,2,19,19,0,0,1,8.25,22.89,17.82,17.82,0,0,1-2.59,4.86,22.23,22.23,0,0,1-1.85,2.18,22.47,22.47,0,0,1-2.22,1.88,19.06,19.06,0,0,1-22.65,0,21.27,21.27,0,0,1-2.22-1.89,21,21,0,0,1-1.85-2.17,18,18,0,0,1-2.59-4.86,19.1,19.1,0,0,1-.8-10,18.87,18.87,0,0,1,3.61-8,19.08,19.08,0,0,1,5.44-4.81,17.91,17.91,0,0,1,5.09-2,13.32,13.32,0,0,1,2-.36,9.54,9.54,0,0,1,1.46-.13h.9A.94.94,0,0,1,244.58,102.43Z" style="fill:#263238"></path><path d="M214.86,78.24h1.28c.84,0,2.1,0,3.74.12a77.05,77.05,0,0,1,14.22,2.15,77.91,77.91,0,0,1,9.9,3.19,76.57,76.57,0,0,1,11.11,5.45,79.67,79.67,0,0,1,22.43,20,78.63,78.63,0,0,1,14.77,33.16,80.41,80.41,0,0,1-.32,30.89,86.54,86.54,0,0,1-3,10.54,79,79,0,0,1-27.48,36.68,77.45,77.45,0,0,1-10.34,6.43c-1.81,1-3.69,1.8-5.58,2.65s-3.84,1.55-5.83,2.18a79.52,79.52,0,0,1-24.89,4,86.42,86.42,0,0,1-12.69-1,77.22,77.22,0,0,1-12.21-3c-2-.63-3.91-1.41-5.83-2.17s-3.77-1.68-5.57-2.65a77.74,77.74,0,0,1-10.36-6.44,79,79,0,0,1-27.48-36.68,84.73,84.73,0,0,1-3-10.54,77.39,77.39,0,0,1-1.47-10.57,78.45,78.45,0,0,1,1.14-20.32,78.47,78.47,0,0,1,14.78-33.16,79.39,79.39,0,0,1,22.43-20,75.58,75.58,0,0,1,11.11-5.45,76.74,76.74,0,0,1,24.12-5.34c1.64-.13,2.89-.09,3.74-.12h1.27l-1.27.06c-.84.06-2.1,0-3.74.17a79.3,79.3,0,0,0-14.17,2.25,77.41,77.41,0,0,0-9.86,3.22,75.86,75.86,0,0,0-11.06,5.47,79.57,79.57,0,0,0-22.28,19.94,78.21,78.21,0,0,0-14.64,33,77.62,77.62,0,0,0-1.11,20.21,76.4,76.4,0,0,0,1.47,10.5,83.81,83.81,0,0,0,3,10.48A78.58,78.58,0,0,0,168.52,220a76.54,76.54,0,0,0,10.28,6.39c1.8,1,3.67,1.79,5.54,2.63s3.82,1.54,5.8,2.16a75,75,0,0,0,12.12,3,83.9,83.9,0,0,0,12.61,1,79.13,79.13,0,0,0,24.73-4c2-.63,3.88-1.41,5.79-2.16s3.74-1.67,5.54-2.63a78.6,78.6,0,0,0,37.61-42.82,83.86,83.86,0,0,0,3-10.48,79.37,79.37,0,0,0,1.47-10.5,78.52,78.52,0,0,0-1.11-20.21,78.36,78.36,0,0,0-14.64-33A79.75,79.75,0,0,0,255,89.41a76.28,76.28,0,0,0-11.05-5.47,78.2,78.2,0,0,0-24-5.47c-1.64-.15-2.89-.11-3.74-.17Z" style="fill:#263238"></path><path d="M235.87,156.84a1.91,1.91,0,0,1,0-.34c0-.25-.05-.58-.08-1a10,10,0,0,0-.19-1.6,13.93,13.93,0,0,0-.45-2.16,20.05,20.05,0,0,0-2.33-5.55,20.83,20.83,0,0,0-25-8.86,20.33,20.33,0,0,0-2.71,1.2,22.4,22.4,0,0,0-2.55,1.63,19.37,19.37,0,0,0-4.38,4.41,20,20,0,0,0-3,5.72,20.58,20.58,0,0,0,0,13.1,20.08,20.08,0,0,0,3,5.72,19.37,19.37,0,0,0,4.38,4.41,22.4,22.4,0,0,0,2.55,1.63,20.33,20.33,0,0,0,2.71,1.2,20.81,20.81,0,0,0,10.91.91,21,21,0,0,0,14.08-9.77,20.05,20.05,0,0,0,2.33-5.55,13.93,13.93,0,0,0,.45-2.16,10,10,0,0,0,.19-1.6c0-.42.06-.75.08-1a1.91,1.91,0,0,1,0-.34,1.8,1.8,0,0,1,0,.34c0,.25,0,.58,0,1a9.44,9.44,0,0,1-.13,1.63,15.4,15.4,0,0,1-.41,2.18,19.87,19.87,0,0,1-2.28,5.65,21.12,21.12,0,0,1-25.41,9.16,19.47,19.47,0,0,1-5.38-2.88,24.74,24.74,0,0,1-2.42-2,23.5,23.5,0,0,1-2.08-2.46,20.56,20.56,0,0,1-3.05-5.86,21,21,0,0,1,0-13.42,20.56,20.56,0,0,1,3.05-5.86,23.5,23.5,0,0,1,2.08-2.46,26,26,0,0,1,2.42-2.05,19.47,19.47,0,0,1,5.38-2.88,21.33,21.33,0,0,1,11.16-.89A21.18,21.18,0,0,1,233,146a19.87,19.87,0,0,1,2.28,5.65,15.4,15.4,0,0,1,.41,2.18,9.44,9.44,0,0,1,.13,1.63c0,.42,0,.75,0,1A1.8,1.8,0,0,1,235.87,156.84Z" style="fill:#263238"></path><path d="M289.05,156.84s0-.41-.06-1.21,0-2-.16-3.54a75.16,75.16,0,0,0-2.13-13.42,72.12,72.12,0,0,0-3.06-9.34,71.35,71.35,0,0,0-5.18-10.47,75.09,75.09,0,0,0-18.89-21.11A73.91,73.91,0,0,0,228.3,83.89a75.6,75.6,0,0,0-29.09.34,78.33,78.33,0,0,0-9.92,2.83,74.37,74.37,0,0,0-34.5,25.88,72.79,72.79,0,0,0-6,9.74c-.92,1.7-1.69,3.47-2.49,5.25s-1.46,3.61-2.05,5.48a74.1,74.1,0,0,0,0,46.85c.59,1.87,1.33,3.67,2,5.48s1.58,3.55,2.49,5.25a74.39,74.39,0,0,0,40.56,35.63,78.33,78.33,0,0,0,9.92,2.83,75.06,75.06,0,0,0,29.1.34,74.24,74.24,0,0,0,31.27-13.86,75.18,75.18,0,0,0,18.88-21.11,72.47,72.47,0,0,0,5.19-10.47A74.06,74.06,0,0,0,286.7,175a75.11,75.11,0,0,0,2.13-13.43c.14-1.55.11-2.74.16-3.53s.06-1.21.06-1.21,0,.41,0,1.21,0,2-.11,3.54a72.92,72.92,0,0,1-5.06,22.85A71.75,71.75,0,0,1,278.71,195a75.24,75.24,0,0,1-18.91,21.25,74.5,74.5,0,0,1-31.41,14,75.92,75.92,0,0,1-29.27-.31,79.53,79.53,0,0,1-10-2.84,74.89,74.89,0,0,1-34.75-26,72.8,72.8,0,0,1-6.09-9.81c-.93-1.71-1.71-3.5-2.51-5.29s-1.47-3.64-2.07-5.52a74.63,74.63,0,0,1,0-47.17c.59-1.89,1.34-3.71,2.06-5.53s1.59-3.57,2.51-5.28a73.77,73.77,0,0,1,6.1-9.8,74.87,74.87,0,0,1,34.74-26,79.86,79.86,0,0,1,10-2.84,76,76,0,0,1,29.27-.31,74.47,74.47,0,0,1,31.42,14,75.41,75.41,0,0,1,18.91,21.25,70.65,70.65,0,0,1,5.16,10.53,72.61,72.61,0,0,1,3,9.38,73.87,73.87,0,0,1,2,13.47c.12,1.55.07,2.74.11,3.54S289.05,156.84,289.05,156.84Z" style="fill:#263238"></path></g></svg>