<?xml version="1.0" encoding="UTF-8"?>
<svg width="752pt" height="752pt" version="1.1" viewBox="0 0 752 752" xmlns="http://www.w3.org/2000/svg">
 <defs>
  <clipPath id="a">
   <path d="m139.21 154h473.58v445h-473.58z"/>
  </clipPath>
 </defs>
 <g clip-path="url(#a)">
  <path d="m531.67 568.04c0 26.566-7.1055 32.535-29.078 26.379-22.684-6.3477-42.906-18.281-63.082-30.121-20.176-11.84-39.355-24.438-58.391-37.602-2.8906-2.6211-7.293-2.6211-10.184 0-30.191 21.445-61.715 40.949-94.383 58.391-10.594 5.9141-22.027 10.16-33.91 12.598-9.8516 1.6562-14.633-1.7031-16.48-11.602-2.9844-16.387 0.42578-32.344 3.3164-48.258 5.9336-31.004 13.844-61.598 23.68-91.59 1.207-2.457 1.3828-5.2891 0.49609-7.875-0.89062-2.5859-2.7734-4.7148-5.2344-5.9062-31.02-22.117-61.848-44.469-88.797-71.797-6.8906-6.5977-12.75-14.199-17.379-22.543-5.6367-10.891-3.5508-17.809 7.293-23.68v0.003906c12.551-5.9258 26.02-9.6562 39.828-11.035 34.973-4.6875 70.23-6.8711 105.52-6.5352 1.9219 0.35156 3.9062-0.10156 5.4844-1.2578s2.6055-2.9102 2.8477-4.8516c9.4727-34.668 18.941-69.238 35.754-101.3h0.003906c4.9961-10.805 12.152-20.477 21.027-28.414 11.699-9.4727 22.543-9.1406 33.672 1.1836 12.027 11.176 19.32 25.48 26 40.02h-0.003907c12.613 28.484 22.645 58.043 29.98 88.32 0.19141 2.0898 1.25 4 2.9102 5.2773 1.6641 1.2734 3.7852 1.8008 5.8516 1.4492 37.887 0.71094 75.773 1.6094 113.19 7.625h-0.003906c9.8672 1.3164 19.547 3.7773 28.84 7.3398 13.355 5.4922 15.438 11.887 8.0977 24.199h0.003906c-4.707 7.4766-10.25 14.387-16.531 20.602-26.992 28.035-57.918 51.477-88.656 75.062h0.003906c-3.3242 1.8867-4.625 6.0195-2.9844 9.4727 11.602 33.039 20.984 66.816 28.082 101.11 1.6875 8.3555 2.7656 16.824 3.2227 25.336z"/>
 </g>
</svg>
